
<svg version="1.1" id="Слой_1" xmlns="http://www.w3.org/2000/svg" xmlns:xlink="http://www.w3.org/1999/xlink" x="0px" y="0px"
	 viewBox="0 0 438.5 438.5" style="enable-background:new 0 0 438.5 438.5;" xml:space="preserve">
<path d="M236.3,209.4c-1.8-3-4.1-5.4-7.2-7.2c-3-1.8-6.3-2.6-9.9-2.6c-3.6,0-6.9,0.9-9.9,2.6c-3,1.8-5.4,4.1-7.2,7.2
	c-1.8,3-2.6,6.3-2.6,9.9c0,3.6,0.9,6.9,2.6,9.9c1.8,3,4.1,5.4,7.2,7.2c3,1.8,6.3,2.6,9.9,2.6c3.6,0,6.9-0.9,9.9-2.6
	c3-1.8,5.4-4.1,7.1-7.2c1.8-3,2.6-6.3,2.6-9.9C238.9,215.7,238,212.4,236.3,209.4z M231.3,226.3c-1.2,2.1-2.9,3.8-5.1,5.1
	c-2.1,1.2-4.5,1.9-7,1.9c-2.5,0-4.9-0.6-7-1.9c-2.1-1.2-3.8-2.9-5.1-5.1c-1.2-2.1-1.9-4.5-1.9-7c0-2.5,0.6-4.9,1.9-7
	c1.2-2.1,2.9-3.8,5.1-5.1c2.1-1.2,4.5-1.9,7-1.9c2.5,0,4.9,0.6,7,1.9c2.1,1.2,3.8,2.9,5.1,5.1c1.2,2.1,1.9,4.5,1.9,7
	C233.2,221.8,232.6,224.1,231.3,226.3z"/>
</svg>
