<svg width="194" height="215" viewBox="0 0 194 215" fill="none" xmlns="http://www.w3.org/2000/svg">
<path d="M23.0625 107.781L27.1641 118.68L31.2559 107.781H34.4492V122H31.9883V117.312L32.2324 111.043L28.0332 122H26.2656L22.0762 111.053L22.3203 117.312V122H19.8594V107.781H23.0625ZM46.0996 122H43.7266V117.732H39.6152V122H37.2422V111.434H39.6152V115.838H43.7266V111.434H46.0996V122ZM48.1895 116.619C48.1895 115.584 48.3945 114.653 48.8047 113.826C49.2148 112.993 49.791 112.355 50.5332 111.912C51.2754 111.463 52.1283 111.238 53.0918 111.238C54.5176 111.238 55.6732 111.697 56.5586 112.615C57.4505 113.533 57.9323 114.751 58.0039 116.268L58.0137 116.824C58.0137 117.866 57.8118 118.797 57.4082 119.617C57.0111 120.438 56.4382 121.072 55.6895 121.521C54.9473 121.971 54.0879 122.195 53.1113 122.195C51.6204 122.195 50.4258 121.701 49.5273 120.711C48.6354 119.715 48.1895 118.39 48.1895 116.736V116.619ZM50.5625 116.824C50.5625 117.911 50.7871 118.764 51.2363 119.383C51.6855 119.995 52.3105 120.301 53.1113 120.301C53.9121 120.301 54.5339 119.988 54.9766 119.363C55.4258 118.738 55.6504 117.824 55.6504 116.619C55.6504 115.551 55.4193 114.705 54.957 114.08C54.5013 113.455 53.8796 113.143 53.0918 113.143C52.3171 113.143 51.7018 113.452 51.2461 114.07C50.7904 114.682 50.5625 115.6 50.5625 116.824ZM67.0566 113.348H62.4668V122H60.1035V111.434H67.0566V113.348ZM67.7598 116.619C67.7598 115.584 67.9648 114.653 68.375 113.826C68.7852 112.993 69.3613 112.355 70.1035 111.912C70.8457 111.463 71.6986 111.238 72.6621 111.238C74.0879 111.238 75.2435 111.697 76.1289 112.615C77.0208 113.533 77.5026 114.751 77.5742 116.268L77.584 116.824C77.584 117.866 77.3822 118.797 76.9785 119.617C76.5814 120.438 76.0085 121.072 75.2598 121.521C74.5176 121.971 73.6582 122.195 72.6816 122.195C71.1908 122.195 69.9961 121.701 69.0977 120.711C68.2057 119.715 67.7598 118.39 67.7598 116.736V116.619ZM70.1328 116.824C70.1328 117.911 70.3574 118.764 70.8066 119.383C71.2559 119.995 71.8809 120.301 72.6816 120.301C73.4824 120.301 74.1042 119.988 74.5469 119.363C74.9961 118.738 75.2207 117.824 75.2207 116.619C75.2207 115.551 74.9896 114.705 74.5273 114.08C74.0716 113.455 73.4499 113.143 72.6621 113.143C71.8874 113.143 71.2721 113.452 70.8164 114.07C70.3607 114.682 70.1328 115.6 70.1328 116.824ZM86.627 113.348H82.0371V122H79.6738V111.434H86.627V113.348ZM97.2227 116.824C97.2227 118.458 96.8516 119.764 96.1094 120.74C95.3672 121.71 94.3711 122.195 93.1211 122.195C91.9622 122.195 91.0345 121.814 90.3379 121.053V126.062H87.9648V111.434H90.1523L90.25 112.508C90.9466 111.661 91.8939 111.238 93.0918 111.238C94.3809 111.238 95.39 111.72 96.1191 112.684C96.8548 113.641 97.2227 114.972 97.2227 116.678V116.824ZM94.8594 116.619C94.8594 115.564 94.6478 114.728 94.2246 114.109C93.8079 113.491 93.209 113.182 92.4277 113.182C91.4577 113.182 90.7611 113.582 90.3379 114.383V119.07C90.7676 119.891 91.4707 120.301 92.4473 120.301C93.2025 120.301 93.7917 119.998 94.2148 119.393C94.6445 118.781 94.8594 117.856 94.8594 116.619ZM105.553 122C105.449 121.798 105.357 121.469 105.279 121.014C104.524 121.801 103.6 122.195 102.506 122.195C101.445 122.195 100.579 121.893 99.9082 121.287C99.2376 120.682 98.9023 119.933 98.9023 119.041C98.9023 117.915 99.319 117.052 100.152 116.453C100.992 115.848 102.19 115.545 103.746 115.545H105.201V114.852C105.201 114.305 105.048 113.868 104.742 113.543C104.436 113.211 103.971 113.045 103.346 113.045C102.805 113.045 102.363 113.182 102.018 113.455C101.673 113.722 101.5 114.064 101.5 114.48H99.127C99.127 113.901 99.319 113.361 99.7031 112.859C100.087 112.352 100.608 111.954 101.266 111.668C101.93 111.382 102.669 111.238 103.482 111.238C104.719 111.238 105.706 111.551 106.441 112.176C107.177 112.794 107.555 113.667 107.574 114.793V119.559C107.574 120.509 107.708 121.268 107.975 121.834V122H105.553ZM102.945 120.291C103.414 120.291 103.854 120.177 104.264 119.949C104.68 119.721 104.993 119.415 105.201 119.031V117.039H103.922C103.043 117.039 102.382 117.192 101.939 117.498C101.497 117.804 101.275 118.237 101.275 118.797C101.275 119.253 101.425 119.617 101.725 119.891C102.031 120.158 102.438 120.291 102.945 120.291ZM119.01 122H116.637V117.732H112.525V122H110.152V111.434H112.525V115.838H116.637V111.434H119.01V122ZM130.494 122H128.121V117.732H124.01V122H121.637V111.434H124.01V115.838H128.121V111.434H130.494V122ZM132.584 116.619C132.584 115.584 132.789 114.653 133.199 113.826C133.609 112.993 134.186 112.355 134.928 111.912C135.67 111.463 136.523 111.238 137.486 111.238C138.912 111.238 140.068 111.697 140.953 112.615C141.845 113.533 142.327 114.751 142.398 116.268L142.408 116.824C142.408 117.866 142.206 118.797 141.803 119.617C141.406 120.438 140.833 121.072 140.084 121.521C139.342 121.971 138.482 122.195 137.506 122.195C136.015 122.195 134.82 121.701 133.922 120.711C133.03 119.715 132.584 118.39 132.584 116.736V116.619ZM134.957 116.824C134.957 117.911 135.182 118.764 135.631 119.383C136.08 119.995 136.705 120.301 137.506 120.301C138.307 120.301 138.928 119.988 139.371 119.363C139.82 118.738 140.045 117.824 140.045 116.619C140.045 115.551 139.814 114.705 139.352 114.08C138.896 113.455 138.274 113.143 137.486 113.143C136.712 113.143 136.096 113.452 135.641 114.07C135.185 114.682 134.957 115.6 134.957 116.824ZM148.756 120.301C149.348 120.301 149.84 120.128 150.23 119.783C150.621 119.438 150.829 119.012 150.855 118.504H153.092C153.066 119.161 152.861 119.777 152.477 120.35C152.092 120.916 151.572 121.365 150.914 121.697C150.257 122.029 149.547 122.195 148.785 122.195C147.307 122.195 146.135 121.717 145.27 120.76C144.404 119.803 143.971 118.481 143.971 116.795V116.551C143.971 114.943 144.4 113.657 145.26 112.693C146.119 111.723 147.291 111.238 148.775 111.238C150.032 111.238 151.054 111.606 151.842 112.342C152.636 113.071 153.053 114.031 153.092 115.223H150.855C150.829 114.617 150.621 114.119 150.23 113.729C149.846 113.338 149.355 113.143 148.756 113.143C147.988 113.143 147.395 113.423 146.979 113.982C146.562 114.536 146.35 115.379 146.344 116.512V116.893C146.344 118.038 146.549 118.895 146.959 119.461C147.376 120.021 147.975 120.301 148.756 120.301ZM163.199 113.318H159.771V122H157.398V113.318H154.01V111.434H163.199V113.318ZM167.34 114.793H169.664C170.53 114.793 171.285 114.943 171.93 115.242C172.574 115.542 173.062 115.962 173.395 116.502C173.733 117.042 173.902 117.671 173.902 118.387C173.902 119.474 173.518 120.346 172.75 121.004C171.982 121.661 170.96 121.993 169.684 122H164.967V111.434H167.34V114.793ZM167.34 116.697V120.105H169.654C170.234 120.105 170.689 119.962 171.021 119.676C171.36 119.383 171.529 118.969 171.529 118.436C171.529 117.902 171.363 117.482 171.031 117.176C170.706 116.863 170.263 116.704 169.703 116.697H167.34Z" fill="#4A4A4A"/>
<path d="M6.02588 154.71H4.72949V159.5H3.32324V148.836H4.72949V153.538H5.82812L9.55615 148.836H11.3066L7.23438 154.007L11.6069 159.5H9.88574L6.02588 154.71ZM12.1196 155.464C12.1196 154.688 12.271 153.99 12.5737 153.37C12.8813 152.75 13.3062 152.271 13.8481 151.934C14.395 151.597 15.0176 151.429 15.7158 151.429C16.7949 151.429 17.6665 151.802 18.3306 152.549C18.9995 153.296 19.334 154.29 19.334 155.53V155.625C19.334 156.397 19.1851 157.09 18.8872 157.706C18.5942 158.316 18.1719 158.792 17.6201 159.134C17.0732 159.476 16.4434 159.646 15.7305 159.646C14.6562 159.646 13.7847 159.273 13.1157 158.526C12.4517 157.779 12.1196 156.79 12.1196 155.56V155.464ZM13.4819 155.625C13.4819 156.504 13.6846 157.21 14.0898 157.742C14.5 158.274 15.0469 158.541 15.7305 158.541C16.4189 158.541 16.9658 158.272 17.3711 157.735C17.7764 157.193 17.979 156.436 17.979 155.464C17.979 154.595 17.7715 153.892 17.3564 153.355C16.9463 152.813 16.3994 152.542 15.7158 152.542C15.0469 152.542 14.5073 152.808 14.0972 153.34C13.687 153.873 13.4819 154.634 13.4819 155.625ZM25.5962 157.706L28.2915 151.575H29.9834V159.5H28.6284V153.736L26.0649 159.5H25.1274L22.5127 153.611V159.5H21.1577V151.575H22.9155L25.5962 157.706ZM37.0586 159.5C36.9805 159.344 36.917 159.065 36.8682 158.665C36.2383 159.319 35.4863 159.646 34.6123 159.646C33.8311 159.646 33.189 159.427 32.686 158.987C32.188 158.543 31.939 157.981 31.939 157.303C31.939 156.478 32.2515 155.838 32.8765 155.384C33.5063 154.925 34.3901 154.695 35.5278 154.695H36.8462V154.073C36.8462 153.599 36.7046 153.223 36.4214 152.945C36.1382 152.662 35.7207 152.52 35.1689 152.52C34.6855 152.52 34.2803 152.642 33.9531 152.886C33.626 153.13 33.4624 153.426 33.4624 153.772H32.1001C32.1001 153.377 32.2393 152.996 32.5176 152.63C32.8008 152.259 33.1816 151.966 33.6602 151.751C34.1436 151.536 34.6733 151.429 35.2495 151.429C36.1626 151.429 36.8779 151.658 37.3955 152.117C37.9131 152.571 38.1816 153.199 38.2012 154V157.647C38.2012 158.375 38.2939 158.953 38.4795 159.383V159.5H37.0586ZM34.8101 158.467C35.2349 158.467 35.6377 158.357 36.0186 158.138C36.3994 157.918 36.6753 157.632 36.8462 157.281V155.655H35.7842C34.124 155.655 33.2939 156.141 33.2939 157.112C33.2939 157.537 33.4355 157.869 33.7188 158.108C34.002 158.348 34.3657 158.467 34.8101 158.467ZM46.7998 159.5H45.4448V156.116H41.8047V159.5H40.4424V151.575H41.8047V155.01H45.4448V151.575H46.7998V159.5ZM48.9165 158.394L49.3853 157.815C49.9126 157.132 50.2129 156.106 50.2861 154.739L50.4106 151.575H55.5156V158.394H56.5337V161.829H55.1787V159.5H49.6489V161.829H48.2939L48.3013 158.394H48.9165ZM50.5205 158.394H54.1606V152.828H51.7217L51.6411 154.717C51.5581 156.294 51.1846 157.52 50.5205 158.394ZM62.9277 159.5C62.8496 159.344 62.7861 159.065 62.7373 158.665C62.1074 159.319 61.3555 159.646 60.4814 159.646C59.7002 159.646 59.0581 159.427 58.5552 158.987C58.0571 158.543 57.8081 157.981 57.8081 157.303C57.8081 156.478 58.1206 155.838 58.7456 155.384C59.3755 154.925 60.2593 154.695 61.397 154.695H62.7153V154.073C62.7153 153.599 62.5737 153.223 62.2905 152.945C62.0073 152.662 61.5898 152.52 61.0381 152.52C60.5547 152.52 60.1494 152.642 59.8223 152.886C59.4951 153.13 59.3315 153.426 59.3315 153.772H57.9692C57.9692 153.377 58.1084 152.996 58.3867 152.63C58.6699 152.259 59.0508 151.966 59.5293 151.751C60.0127 151.536 60.5425 151.429 61.1187 151.429C62.0317 151.429 62.7471 151.658 63.2646 152.117C63.7822 152.571 64.0508 153.199 64.0703 154V157.647C64.0703 158.375 64.1631 158.953 64.3486 159.383V159.5H62.9277ZM60.6792 158.467C61.104 158.467 61.5068 158.357 61.8877 158.138C62.2686 157.918 62.5444 157.632 62.7153 157.281V155.655H61.6533C59.9932 155.655 59.1631 156.141 59.1631 157.112C59.1631 157.537 59.3047 157.869 59.5879 158.108C59.8711 158.348 60.2349 158.467 60.6792 158.467ZM75.042 151.575H76.397V159.5H75.042V153.721L71.3872 159.5H70.0322V151.575H71.3872V157.361L75.042 151.575ZM82.9302 153.743C82.9302 153.372 82.7886 153.079 82.5054 152.864C82.2222 152.645 81.834 152.535 81.3408 152.535C80.8623 152.535 80.4619 152.659 80.1396 152.908C79.8223 153.157 79.6636 153.45 79.6636 153.787H78.3159C78.3159 153.099 78.604 152.535 79.1802 152.095C79.7563 151.656 80.4766 151.436 81.3408 151.436C82.2686 151.436 82.9912 151.636 83.5088 152.037C84.0264 152.432 84.2852 152.999 84.2852 153.736C84.2852 154.092 84.1777 154.419 83.9629 154.717C83.748 155.015 83.4429 155.252 83.0474 155.428C83.9702 155.74 84.4316 156.355 84.4316 157.273C84.4316 158.001 84.1509 158.577 83.5894 159.002C83.0278 159.427 82.2783 159.639 81.3408 159.639C80.4277 159.639 79.6733 159.417 79.0776 158.973C78.4868 158.523 78.1914 157.918 78.1914 157.156H79.5391C79.5391 157.542 79.71 157.874 80.0518 158.152C80.3984 158.426 80.8281 158.562 81.3408 158.562C81.8584 158.562 82.2759 158.443 82.5933 158.204C82.9106 157.964 83.0693 157.654 83.0693 157.273C83.0693 156.829 82.9351 156.512 82.6665 156.321C82.4028 156.126 81.9902 156.028 81.4287 156.028H80.0737V154.886H81.5459C82.4688 154.861 82.9302 154.48 82.9302 153.743ZM93.0889 158.541C93.5723 158.541 93.9946 158.394 94.356 158.101C94.7173 157.808 94.9175 157.442 94.9565 157.002H96.2383C96.2139 157.457 96.0576 157.889 95.7695 158.299C95.4814 158.709 95.0957 159.036 94.6123 159.28C94.1338 159.524 93.626 159.646 93.0889 159.646C92.0098 159.646 91.1504 159.288 90.5107 158.57C89.876 157.847 89.5586 156.861 89.5586 155.611V155.384C89.5586 154.612 89.7002 153.926 89.9834 153.326C90.2666 152.725 90.6719 152.259 91.1992 151.927C91.7314 151.595 92.3589 151.429 93.0815 151.429C93.9702 151.429 94.7075 151.695 95.2935 152.227C95.8843 152.759 96.1992 153.45 96.2383 154.3H94.9565C94.9175 153.787 94.7222 153.367 94.3706 153.04C94.0239 152.708 93.5942 152.542 93.0815 152.542C92.3931 152.542 91.8584 152.791 91.4775 153.289C91.1016 153.782 90.9136 154.498 90.9136 155.435V155.691C90.9136 156.604 91.1016 157.308 91.4775 157.801C91.8535 158.294 92.3906 158.541 93.0889 158.541ZM104.244 159.5H102.889V152.696H99.2412V159.5H97.8789V151.575H104.244V159.5ZM109.708 159.646C108.633 159.646 107.759 159.295 107.085 158.592C106.412 157.884 106.075 156.939 106.075 155.757V155.508C106.075 154.722 106.224 154.021 106.521 153.406C106.824 152.786 107.244 152.303 107.781 151.956C108.323 151.604 108.909 151.429 109.539 151.429C110.569 151.429 111.37 151.768 111.941 152.447C112.513 153.125 112.798 154.097 112.798 155.362V155.926H107.43C107.449 156.707 107.676 157.339 108.111 157.823C108.55 158.301 109.107 158.541 109.781 158.541C110.259 158.541 110.665 158.443 110.997 158.248C111.329 158.052 111.619 157.793 111.868 157.471L112.696 158.116C112.032 159.136 111.036 159.646 109.708 159.646ZM109.539 152.542C108.992 152.542 108.533 152.742 108.162 153.143C107.791 153.538 107.562 154.095 107.474 154.812H111.443V154.71C111.404 154.021 111.219 153.489 110.887 153.113C110.555 152.732 110.105 152.542 109.539 152.542ZM114.49 151.575H115.853V158.394H119.5V151.575H120.855V158.394H121.8L121.668 161.851H120.452V159.5H114.49V151.575ZM128.392 151.575H129.747V159.5H128.392V153.721L124.737 159.5H123.382V151.575H124.737V157.361L128.392 151.575ZM136.814 159.5C136.736 159.344 136.673 159.065 136.624 158.665C135.994 159.319 135.242 159.646 134.368 159.646C133.587 159.646 132.945 159.427 132.442 158.987C131.944 158.543 131.695 157.981 131.695 157.303C131.695 156.478 132.007 155.838 132.632 155.384C133.262 154.925 134.146 154.695 135.284 154.695H136.602V154.073C136.602 153.599 136.46 153.223 136.177 152.945C135.894 152.662 135.477 152.52 134.925 152.52C134.441 152.52 134.036 152.642 133.709 152.886C133.382 153.13 133.218 153.426 133.218 153.772H131.856C131.856 153.377 131.995 152.996 132.273 152.63C132.557 152.259 132.938 151.966 133.416 151.751C133.899 151.536 134.429 151.429 135.005 151.429C135.918 151.429 136.634 151.658 137.151 152.117C137.669 152.571 137.938 153.199 137.957 154V157.647C137.957 158.375 138.05 158.953 138.235 159.383V159.5H136.814ZM134.566 158.467C134.991 158.467 135.394 158.357 135.774 158.138C136.155 157.918 136.431 157.632 136.602 157.281V155.655H135.54C133.88 155.655 133.05 156.141 133.05 157.112C133.05 157.537 133.191 157.869 133.475 158.108C133.758 158.348 134.122 158.467 134.566 158.467ZM146.578 151.575V159.5H145.215V152.696H142.52L142.359 155.662C142.271 157.024 142.042 157.999 141.67 158.584C141.304 159.17 140.721 159.476 139.92 159.5H139.378V158.306L139.766 158.277C140.206 158.228 140.521 157.974 140.711 157.515C140.901 157.056 141.023 156.207 141.077 154.966L141.224 151.575H146.578ZM153.88 151.575H155.235V159.5H153.88V153.721L150.225 159.5H148.87V151.575H150.225V157.361L153.88 151.575ZM160.589 158.541C161.072 158.541 161.495 158.394 161.856 158.101C162.217 157.808 162.417 157.442 162.457 157.002H163.738C163.714 157.457 163.558 157.889 163.27 158.299C162.981 158.709 162.596 159.036 162.112 159.28C161.634 159.524 161.126 159.646 160.589 159.646C159.51 159.646 158.65 159.288 158.011 158.57C157.376 157.847 157.059 156.861 157.059 155.611V155.384C157.059 154.612 157.2 153.926 157.483 153.326C157.767 152.725 158.172 152.259 158.699 151.927C159.231 151.595 159.859 151.429 160.582 151.429C161.47 151.429 162.208 151.695 162.793 152.227C163.384 152.759 163.699 153.45 163.738 154.3H162.457C162.417 153.787 162.222 153.367 161.871 153.04C161.524 152.708 161.094 152.542 160.582 152.542C159.893 152.542 159.358 152.791 158.978 153.289C158.602 153.782 158.414 154.498 158.414 155.435V155.691C158.414 156.604 158.602 157.308 158.978 157.801C159.354 158.294 159.891 158.541 160.589 158.541ZM171.15 152.674H168.492V159.5H167.137V152.674H164.529V151.575H171.15V152.674ZM171.802 155.464C171.802 154.688 171.954 153.99 172.256 153.37C172.564 152.75 172.989 152.271 173.531 151.934C174.078 151.597 174.7 151.429 175.398 151.429C176.478 151.429 177.349 151.802 178.013 152.549C178.682 153.296 179.017 154.29 179.017 155.53V155.625C179.017 156.397 178.868 157.09 178.57 157.706C178.277 158.316 177.854 158.792 177.303 159.134C176.756 159.476 176.126 159.646 175.413 159.646C174.339 159.646 173.467 159.273 172.798 158.526C172.134 157.779 171.802 156.79 171.802 155.56V155.464ZM173.165 155.625C173.165 156.504 173.367 157.21 173.772 157.742C174.183 158.274 174.729 158.541 175.413 158.541C176.102 158.541 176.648 158.272 177.054 157.735C177.459 157.193 177.662 156.436 177.662 155.464C177.662 154.595 177.454 153.892 177.039 153.355C176.629 152.813 176.082 152.542 175.398 152.542C174.729 152.542 174.19 152.808 173.78 153.34C173.37 153.873 173.165 154.634 173.165 155.625ZM180.84 159.5V151.575H183.931C184.986 151.575 185.794 151.761 186.355 152.132C186.922 152.498 187.205 153.038 187.205 153.75C187.205 154.117 187.095 154.449 186.875 154.747C186.656 155.04 186.331 155.264 185.901 155.42C186.38 155.533 186.763 155.752 187.051 156.08C187.344 156.407 187.491 156.797 187.491 157.251C187.491 157.979 187.222 158.536 186.685 158.921C186.153 159.307 185.398 159.5 184.422 159.5H180.84ZM182.195 156.021V158.409H184.437C185.003 158.409 185.425 158.304 185.704 158.094C185.987 157.884 186.128 157.588 186.128 157.208C186.128 156.417 185.547 156.021 184.385 156.021H182.195ZM182.195 154.937H183.946C185.215 154.937 185.85 154.566 185.85 153.824C185.85 153.082 185.25 152.698 184.048 152.674H182.195V154.937ZM19.2241 182.5V174.575H22.3149C23.3696 174.575 24.1777 174.761 24.7393 175.132C25.3057 175.498 25.5889 176.038 25.5889 176.75C25.5889 177.117 25.479 177.449 25.2593 177.747C25.0396 178.04 24.7148 178.264 24.2852 178.42C24.7637 178.533 25.147 178.752 25.4351 179.08C25.728 179.407 25.8745 179.797 25.8745 180.251C25.8745 180.979 25.606 181.536 25.0688 181.921C24.5366 182.307 23.7822 182.5 22.8057 182.5H19.2241ZM20.5791 179.021V181.409H22.8203C23.3867 181.409 23.8091 181.304 24.0874 181.094C24.3706 180.884 24.5122 180.588 24.5122 180.208C24.5122 179.417 23.9312 179.021 22.769 179.021H20.5791ZM20.5791 177.937H22.3296C23.5991 177.937 24.2339 177.566 24.2339 176.824C24.2339 176.082 23.6333 175.698 22.4321 175.674H20.5791V177.937ZM38.084 178.625C38.084 179.832 37.8081 180.803 37.2563 181.541C36.7046 182.278 35.9575 182.646 35.0151 182.646C34.0532 182.646 33.2964 182.341 32.7446 181.731V185.547H31.3896V174.575H32.6274L32.6934 175.454C33.2451 174.771 34.0117 174.429 34.9932 174.429C35.9453 174.429 36.6973 174.788 37.249 175.505C37.8057 176.223 38.084 177.222 38.084 178.501V178.625ZM36.729 178.472C36.729 177.578 36.5386 176.873 36.1577 176.355C35.7769 175.837 35.2544 175.579 34.5903 175.579C33.77 175.579 33.1548 175.942 32.7446 176.67V180.457C33.1499 181.179 33.77 181.541 34.605 181.541C35.2544 181.541 35.7695 181.284 36.1504 180.771C36.5361 180.254 36.729 179.487 36.729 178.472ZM44.7051 182.5C44.627 182.344 44.5635 182.065 44.5146 181.665C43.8848 182.319 43.1328 182.646 42.2588 182.646C41.4775 182.646 40.8354 182.427 40.3325 181.987C39.8345 181.543 39.5854 180.981 39.5854 180.303C39.5854 179.478 39.8979 178.838 40.5229 178.384C41.1528 177.925 42.0366 177.695 43.1743 177.695H44.4927V177.073C44.4927 176.599 44.3511 176.223 44.0679 175.945C43.7847 175.662 43.3672 175.52 42.8154 175.52C42.332 175.52 41.9268 175.642 41.5996 175.886C41.2725 176.13 41.1089 176.426 41.1089 176.772H39.7466C39.7466 176.377 39.8857 175.996 40.1641 175.63C40.4473 175.259 40.8281 174.966 41.3066 174.751C41.79 174.536 42.3198 174.429 42.896 174.429C43.8091 174.429 44.5244 174.658 45.042 175.117C45.5596 175.571 45.8281 176.199 45.8477 177V180.647C45.8477 181.375 45.9404 181.953 46.126 182.383V182.5H44.7051ZM42.4565 181.467C42.8813 181.467 43.2842 181.357 43.665 181.138C44.0459 180.918 44.3218 180.632 44.4927 180.281V178.655H43.4307C41.7705 178.655 40.9404 179.141 40.9404 180.112C40.9404 180.537 41.082 180.869 41.3652 181.108C41.6484 181.348 42.0122 181.467 42.4565 181.467ZM52.3296 176.743C52.3296 176.372 52.188 176.079 51.9048 175.864C51.6216 175.645 51.2334 175.535 50.7402 175.535C50.2617 175.535 49.8613 175.659 49.5391 175.908C49.2217 176.157 49.063 176.45 49.063 176.787H47.7153C47.7153 176.099 48.0034 175.535 48.5796 175.095C49.1558 174.656 49.876 174.436 50.7402 174.436C51.668 174.436 52.3906 174.636 52.9082 175.037C53.4258 175.432 53.6846 175.999 53.6846 176.736C53.6846 177.092 53.5771 177.419 53.3623 177.717C53.1475 178.015 52.8423 178.252 52.4468 178.428C53.3696 178.74 53.8311 179.355 53.8311 180.273C53.8311 181.001 53.5503 181.577 52.9888 182.002C52.4272 182.427 51.6777 182.639 50.7402 182.639C49.8271 182.639 49.0728 182.417 48.4771 181.973C47.8862 181.523 47.5908 180.918 47.5908 180.156H48.9385C48.9385 180.542 49.1094 180.874 49.4512 181.152C49.7979 181.426 50.2275 181.562 50.7402 181.562C51.2578 181.562 51.6753 181.443 51.9927 181.204C52.3101 180.964 52.4688 180.654 52.4688 180.273C52.4688 179.829 52.3345 179.512 52.0659 179.321C51.8022 179.126 51.3896 179.028 50.8281 179.028H49.4731V177.886H50.9453C51.8682 177.861 52.3296 177.48 52.3296 176.743ZM62.0854 174.575V182.5H60.7231V175.696H58.0278L57.8667 178.662C57.7788 180.024 57.5493 180.999 57.1782 181.584C56.812 182.17 56.2285 182.476 55.4277 182.5H54.8857V181.306L55.2739 181.277C55.7134 181.228 56.0283 180.974 56.2188 180.515C56.4092 180.056 56.5312 179.207 56.585 177.966L56.7314 174.575H62.0854ZM69.3877 174.575H70.7427V182.5H69.3877V176.721L65.7329 182.5H64.3779V174.575H65.7329V180.361L69.3877 174.575ZM78.9019 182.5H77.5396V179.629C76.9438 179.785 76.3335 179.863 75.7085 179.863C74.7173 179.863 73.9604 179.609 73.438 179.102C72.9204 178.594 72.6567 177.871 72.647 176.934V174.568H74.002V176.978C74.0264 178.159 74.5952 178.75 75.7085 178.75C76.3335 178.75 76.9438 178.672 77.5396 178.516V174.575H78.9019V182.5ZM87.5518 182.5H86.1968V179.116H82.5566V182.5H81.1943V174.575H82.5566V178.01H86.1968V174.575H87.5518V182.5ZM91.2139 177.307H93.272C94.1704 177.317 94.8809 177.551 95.4033 178.01C95.9258 178.469 96.187 179.092 96.187 179.878C96.187 180.669 95.9185 181.304 95.3813 181.782C94.8442 182.261 94.1216 182.5 93.2134 182.5H89.8589V174.575H91.2139V177.307ZM99.0142 182.5H97.6519V174.575H99.0142V182.5ZM91.2139 178.413V181.394H93.228C93.7358 181.394 94.1289 181.265 94.4072 181.006C94.6855 180.742 94.8247 180.383 94.8247 179.929C94.8247 179.49 94.688 179.131 94.4146 178.853C94.146 178.569 93.7676 178.423 93.2793 178.413H91.2139ZM104.039 177.468L105.796 174.575H107.378L104.786 178.494L107.459 182.5H105.892L104.061 179.534L102.229 182.5H100.655L103.328 178.494L100.735 174.575H102.303L104.039 177.468ZM112.183 178.464C112.183 177.688 112.334 176.99 112.637 176.37C112.945 175.75 113.37 175.271 113.912 174.934C114.458 174.597 115.081 174.429 115.779 174.429C116.858 174.429 117.73 174.802 118.394 175.549C119.063 176.296 119.397 177.29 119.397 178.53V178.625C119.397 179.397 119.249 180.09 118.951 180.706C118.658 181.316 118.235 181.792 117.684 182.134C117.137 182.476 116.507 182.646 115.794 182.646C114.72 182.646 113.848 182.273 113.179 181.526C112.515 180.779 112.183 179.79 112.183 178.56V178.464ZM113.545 178.625C113.545 179.504 113.748 180.21 114.153 180.742C114.563 181.274 115.11 181.541 115.794 181.541C116.482 181.541 117.029 181.272 117.435 180.735C117.84 180.193 118.042 179.436 118.042 178.464C118.042 177.595 117.835 176.892 117.42 176.355C117.01 175.813 116.463 175.542 115.779 175.542C115.11 175.542 114.571 175.808 114.161 176.34C113.75 176.873 113.545 177.634 113.545 178.625ZM124.576 175.029C125.572 175.029 126.368 175.364 126.963 176.033C127.564 176.697 127.864 177.573 127.864 178.662V178.787C127.864 179.534 127.72 180.203 127.432 180.793C127.144 181.379 126.729 181.836 126.187 182.163C125.65 182.485 125.03 182.646 124.327 182.646C123.262 182.646 122.405 182.292 121.756 181.584C121.106 180.872 120.782 179.917 120.782 178.721V178.062C120.782 176.396 121.089 175.073 121.705 174.092C122.325 173.11 123.238 172.512 124.444 172.297C125.127 172.175 125.589 172.026 125.828 171.851C126.067 171.675 126.187 171.433 126.187 171.125H127.3C127.3 171.736 127.161 172.212 126.883 172.554C126.609 172.896 126.17 173.137 125.564 173.279L124.554 173.506C123.748 173.696 123.143 174.019 122.737 174.473C122.337 174.922 122.076 175.522 121.954 176.274C122.671 175.444 123.545 175.029 124.576 175.029ZM124.312 176.143C123.648 176.143 123.121 176.367 122.73 176.816C122.339 177.261 122.144 177.878 122.144 178.669V178.787C122.144 179.636 122.339 180.31 122.73 180.808C123.125 181.301 123.658 181.548 124.327 181.548C125 181.548 125.533 181.299 125.923 180.801C126.314 180.303 126.509 179.575 126.509 178.618C126.509 177.871 126.312 177.273 125.916 176.824C125.525 176.37 124.991 176.143 124.312 176.143ZM135.884 174.575V182.5H134.522V175.696H131.827L131.666 178.662C131.578 180.024 131.348 180.999 130.977 181.584C130.611 182.17 130.027 182.476 129.227 182.5H128.685V181.306L129.073 181.277C129.512 181.228 129.827 180.974 130.018 180.515C130.208 180.056 130.33 179.207 130.384 177.966L130.53 174.575H135.884ZM142.952 182.5C142.874 182.344 142.811 182.065 142.762 181.665C142.132 182.319 141.38 182.646 140.506 182.646C139.725 182.646 139.083 182.427 138.58 181.987C138.082 181.543 137.833 180.981 137.833 180.303C137.833 179.478 138.145 178.838 138.77 178.384C139.4 177.925 140.284 177.695 141.421 177.695H142.74V177.073C142.74 176.599 142.598 176.223 142.315 175.945C142.032 175.662 141.614 175.52 141.062 175.52C140.579 175.52 140.174 175.642 139.847 175.886C139.52 176.13 139.356 176.426 139.356 176.772H137.994C137.994 176.377 138.133 175.996 138.411 175.63C138.694 175.259 139.075 174.966 139.554 174.751C140.037 174.536 140.567 174.429 141.143 174.429C142.056 174.429 142.771 174.658 143.289 175.117C143.807 175.571 144.075 176.199 144.095 177V180.647C144.095 181.375 144.188 181.953 144.373 182.383V182.5H142.952ZM140.704 181.467C141.128 181.467 141.531 181.357 141.912 181.138C142.293 180.918 142.569 180.632 142.74 180.281V178.655H141.678C140.018 178.655 139.188 179.141 139.188 180.112C139.188 180.537 139.329 180.869 139.612 181.108C139.896 181.348 140.259 181.467 140.704 181.467ZM149.397 181.541C149.881 181.541 150.303 181.394 150.665 181.101C151.026 180.808 151.226 180.442 151.265 180.002H152.547C152.522 180.457 152.366 180.889 152.078 181.299C151.79 181.709 151.404 182.036 150.921 182.28C150.442 182.524 149.935 182.646 149.397 182.646C148.318 182.646 147.459 182.288 146.819 181.57C146.185 180.847 145.867 179.861 145.867 178.611V178.384C145.867 177.612 146.009 176.926 146.292 176.326C146.575 175.725 146.98 175.259 147.508 174.927C148.04 174.595 148.667 174.429 149.39 174.429C150.279 174.429 151.016 174.695 151.602 175.227C152.193 175.759 152.508 176.45 152.547 177.3H151.265C151.226 176.787 151.031 176.367 150.679 176.04C150.333 175.708 149.903 175.542 149.39 175.542C148.702 175.542 148.167 175.791 147.786 176.289C147.41 176.782 147.222 177.498 147.222 178.435V178.691C147.222 179.604 147.41 180.308 147.786 180.801C148.162 181.294 148.699 181.541 149.397 181.541ZM159.959 175.674H157.3V182.5H155.945V175.674H153.338V174.575H159.959V175.674ZM167.334 174.575V182.5H165.972V179.417H163.929L162.061 182.5H160.596L162.588 179.211C162.081 179.026 161.69 178.74 161.417 178.354C161.148 177.964 161.014 177.51 161.014 176.992C161.014 176.27 161.285 175.688 161.827 175.249C162.369 174.805 163.094 174.58 164.002 174.575H167.334ZM162.376 177.007C162.376 177.393 162.508 177.705 162.771 177.944C163.035 178.179 163.384 178.298 163.819 178.303H165.972V175.674H164.024C163.521 175.674 163.121 175.798 162.823 176.047C162.525 176.292 162.376 176.611 162.376 177.007ZM172.168 177.468L173.926 174.575H175.508L172.916 178.494L175.589 182.5H174.021L172.19 179.534L170.359 182.5H168.785L171.458 178.494L168.865 174.575H170.433L172.168 177.468ZM77.3931 199.743C77.3931 199.372 77.2515 199.079 76.9683 198.864C76.6851 198.645 76.2969 198.535 75.8037 198.535C75.3252 198.535 74.9248 198.659 74.6025 198.908C74.2852 199.157 74.1265 199.45 74.1265 199.787H72.7788C72.7788 199.099 73.0669 198.535 73.6431 198.095C74.2192 197.656 74.9395 197.436 75.8037 197.436C76.7314 197.436 77.4541 197.636 77.9717 198.037C78.4893 198.432 78.748 198.999 78.748 199.736C78.748 200.092 78.6406 200.419 78.4258 200.717C78.2109 201.015 77.9058 201.252 77.5103 201.428C78.4331 201.74 78.8945 202.355 78.8945 203.273C78.8945 204.001 78.6138 204.577 78.0522 205.002C77.4907 205.427 76.7412 205.639 75.8037 205.639C74.8906 205.639 74.1362 205.417 73.5405 204.973C72.9497 204.523 72.6543 203.918 72.6543 203.156H74.002C74.002 203.542 74.1729 203.874 74.5146 204.152C74.8613 204.426 75.291 204.562 75.8037 204.562C76.3213 204.562 76.7388 204.443 77.0562 204.204C77.3735 203.964 77.5322 203.654 77.5322 203.273C77.5322 202.829 77.3979 202.512 77.1294 202.321C76.8657 202.126 76.4531 202.028 75.8916 202.028H74.5366V200.886H76.0088C76.9316 200.861 77.3931 200.48 77.3931 199.743ZM87.127 205.5H85.772V202.116H82.1318V205.5H80.7695V197.575H82.1318V201.01H85.772V197.575H87.127V205.5ZM94.2021 205.5C94.124 205.344 94.0605 205.065 94.0117 204.665C93.3818 205.319 92.6299 205.646 91.7559 205.646C90.9746 205.646 90.3325 205.427 89.8296 204.987C89.3315 204.543 89.0825 203.981 89.0825 203.303C89.0825 202.478 89.395 201.838 90.02 201.384C90.6499 200.925 91.5337 200.695 92.6714 200.695H93.9897V200.073C93.9897 199.599 93.8481 199.223 93.5649 198.945C93.2817 198.662 92.8643 198.52 92.3125 198.52C91.8291 198.52 91.4238 198.642 91.0967 198.886C90.7695 199.13 90.606 199.426 90.606 199.772H89.2437C89.2437 199.377 89.3828 198.996 89.6611 198.63C89.9443 198.259 90.3252 197.966 90.8037 197.751C91.2871 197.536 91.8169 197.429 92.3931 197.429C93.3062 197.429 94.0215 197.658 94.5391 198.117C95.0566 198.571 95.3252 199.199 95.3447 200V203.647C95.3447 204.375 95.4375 204.953 95.623 205.383V205.5H94.2021ZM91.9536 204.467C92.3784 204.467 92.7812 204.357 93.1621 204.138C93.543 203.918 93.8188 203.632 93.9897 203.281V201.655H92.9277C91.2676 201.655 90.4375 202.141 90.4375 203.112C90.4375 203.537 90.5791 203.869 90.8623 204.108C91.1455 204.348 91.5093 204.467 91.9536 204.467ZM103.943 205.5H102.588V202.116H98.9482V205.5H97.5859V197.575H98.9482V201.01H102.588V197.575H103.943V205.5ZM111.253 197.575H112.608V205.5H111.253V199.721L107.598 205.5H106.243V197.575H107.598V203.361L111.253 197.575ZM120.84 197.575V205.5H119.478V202.417H117.435L115.567 205.5H114.102L116.094 202.211C115.586 202.026 115.196 201.74 114.922 201.354C114.654 200.964 114.52 200.51 114.52 199.992C114.52 199.27 114.791 198.688 115.333 198.249C115.875 197.805 116.6 197.58 117.508 197.575H120.84ZM115.882 200.007C115.882 200.393 116.014 200.705 116.277 200.944C116.541 201.179 116.89 201.298 117.325 201.303H119.478V198.674H117.53C117.027 198.674 116.626 198.798 116.329 199.047C116.031 199.292 115.882 199.611 115.882 200.007Z" fill="#4A4A4A"/>
<path fill-rule="evenodd" clip-rule="evenodd" d="M123.493 12.3735L123.538 12.4213C130.294 19.6627 134 29.0458 134 39C134 49.4171 129.943 59.2108 122.577 66.5771C115.211 73.9434 105.417 78 95 78C84.5829 78 74.789 73.9434 67.423 66.5771C60.0566 59.211 56 49.4171 56 39C56 28.5829 60.0566 18.789 67.423 11.4229C74.789 4.05658 84.5829 0 95 0C104.883 0 114.204 3.65381 121.424 10.3196L121.455 10.3478C121.665 10.5419 121.873 10.738 122.079 10.9369L122.091 10.9482L122.106 10.9631L122.117 10.9738L122.208 11.0618C122.331 11.1815 122.455 11.3011 122.577 11.423C122.703 11.5493 122.827 11.6772 122.951 11.8053L123.026 11.8832L123.037 11.8941L123.052 11.9092C123.055 11.9124 123.058 11.9158 123.062 11.9193L123.066 11.9238C123.21 12.0726 123.352 12.2227 123.493 12.3735ZM119.691 27.7881L126.675 20.8038C122.856 14.1822 117.021 8.86322 110.015 5.6922L103.805 11.9023C103.642 12.0651 103.642 12.3297 103.805 12.4924L119.1 27.7883C119.207 27.8945 119.331 27.9105 119.395 27.9105C119.46 27.9105 119.584 27.8945 119.691 27.7881ZM111.914 32.8994C113.864 34.8492 113.864 38.0219 111.914 39.9715L110.886 40.9998V32.7241C110.886 30.3605 109.002 28.3745 106.686 28.2972C105.94 28.2723 105.217 28.4338 104.572 28.7619C104.187 26.7878 102.487 25.249 100.454 25.1811C99.7044 25.1556 98.9848 25.3176 98.3395 25.6456C97.9545 23.6715 96.2544 22.1327 94.2211 22.0648C93.0279 22.0251 91.9051 22.4583 91.0509 23.2845C90.3844 23.9293 89.9515 24.746 89.793 25.6384C89.1517 25.3151 88.4355 25.1559 87.6931 25.1809C85.377 25.2583 83.4932 27.2441 83.4932 29.6077V34.9535C82.8689 34.6524 82.1745 34.5046 81.4609 34.5294C79.1448 34.6068 77.2609 36.5925 77.2609 38.9563V39.2278C76.7446 38.306 76.4671 37.249 76.5061 36.2147C76.5358 35.4279 76.7966 33.9724 78.209 33.0646C78.2463 33.0406 78.2825 33.0142 78.3177 32.9858C78.3224 32.9819 78.3268 32.9779 78.3312 32.9739C78.3356 32.9698 78.3401 32.9658 78.3447 32.962L78.351 32.9567L78.3521 32.9558L78.3546 32.9537C78.3718 32.939 78.3888 32.9244 78.4053 32.9084L81.9106 29.4744C82.3963 28.9985 82.4044 28.2186 81.9283 27.7328C81.4522 27.2468 80.6727 27.2391 80.1867 27.715L77.5522 30.2957L74.8783 27.6218L82.9127 19.5872L86.3574 16.1426L89.0228 18.8081L88.0291 19.8184C87.5521 20.3033 87.5586 21.0832 88.0434 21.56C88.5283 22.0367 89.308 22.0306 89.785 21.5455L91.5305 19.7709C91.5668 19.7419 91.6021 19.7116 91.6353 19.6784C92.578 18.7355 93.8312 18.2158 95.1644 18.2139C96.4975 18.2158 97.7507 18.7355 98.6934 19.6784C98.7283 19.7133 98.7655 19.7451 98.8039 19.7751L104.216 25.187C104.697 25.668 105.477 25.668 105.958 25.187C106.439 24.7061 106.439 23.9262 105.958 23.4454L101.313 18.8008L103.971 16.1425L115.45 27.6216L111.914 31.1577C111.433 31.6386 111.433 32.4185 111.914 32.8994ZM107.542 4.68103C103.629 3.24658 99.4043 2.46307 95 2.46307C90.6864 2.46307 86.5458 3.21674 82.7005 4.59576L88.2658 10.1613C89.3887 11.2845 89.3887 13.1118 88.2658 14.2347L88.099 14.4015L90.8316 17.1341C91.8465 16.4089 93.0174 15.955 94.2579 15.8069C94.2756 15.8046 94.2933 15.8023 94.3108 15.8003C94.3844 15.7919 94.4581 15.7849 94.5322 15.7788C94.5751 15.7751 94.6184 15.7722 94.6613 15.7692L94.6736 15.7684C94.7294 15.7647 94.7852 15.761 94.8414 15.7587C94.929 15.7549 95.0168 15.7531 95.1048 15.7523C95.1132 15.7523 95.1216 15.752 95.1298 15.7516C95.1389 15.7513 95.148 15.751 95.1571 15.751L95.1639 15.7511L95.1708 15.751C95.1788 15.751 95.1868 15.7512 95.1947 15.7515L95.1985 15.7516C95.2067 15.752 95.2148 15.7523 95.223 15.7523C95.3111 15.7531 95.3988 15.7549 95.4864 15.7587C95.5469 15.7613 95.6071 15.7653 95.6671 15.7692C95.7099 15.772 95.7527 15.7748 95.7954 15.7785C95.87 15.7846 95.9444 15.7916 96.0184 15.8L96.0397 15.8026L96.0467 15.8034L96.0681 15.8061C97.3111 15.954 98.4836 16.4083 99.4975 17.1329L102.229 14.4009L102.063 14.2341C100.94 13.1111 100.94 11.2838 102.063 10.1607L107.542 4.68103ZM80.2138 5.59222L86.5239 11.9023C86.6864 12.065 86.6866 12.3298 86.5239 12.4923L78.8759 20.1404L72.2708 26.7456C72.2706 26.7458 72.2705 26.7461 72.2702 26.7462L71.228 27.7884C71.0654 27.9509 70.8007 27.9509 70.6381 27.7884L63.4472 20.5975C67.3094 14.0009 73.1795 8.71771 80.2138 5.59222ZM80.3773 72.4794V63.895C80.3773 62.3068 81.6695 61.0146 83.2574 61.0146H83.4932V57.1439C79.9617 56.5551 77.2609 53.4777 77.2609 49.7816V42.933C75.2092 41.3563 73.9479 38.6915 74.0447 36.1221C74.1067 34.4762 74.6918 33.0371 75.7209 31.948L73.1362 29.3633L72.9696 29.53C72.4256 30.074 71.7022 30.3737 70.9329 30.3737C70.1636 30.3737 69.4402 30.074 68.8962 29.53L62.2271 22.861C59.8193 27.7308 58.4631 33.2096 58.4631 39C58.4631 53.9495 67.4895 66.8287 80.3773 72.4794ZM105.012 74.1422C104.992 74.1479 104.972 74.1534 104.952 74.1588L104.905 74.1718C104.457 74.298 104.005 74.4144 103.551 74.5238C103.505 74.5348 103.459 74.5462 103.413 74.5576C103.352 74.5728 103.29 74.588 103.229 74.6021C103.135 74.6238 103.04 74.6441 102.946 74.6643L102.812 74.6932C102.605 74.7382 102.398 74.7831 102.19 74.8245C102.088 74.845 101.986 74.8643 101.884 74.8836L101.821 74.8955C101.585 74.94 101.349 74.9828 101.112 75.0226C99.1238 75.3589 97.0824 75.5366 95 75.5366C92.8876 75.5366 90.8172 75.3541 88.802 75.0082C88.6701 74.9857 88.5383 74.9631 88.4067 74.9391C88.223 74.9054 88.04 74.8699 87.8572 74.8335L87.7703 74.8165L87.757 74.8138C87.6998 74.8027 87.6425 74.7914 87.5854 74.7796C85.9617 74.4437 84.3781 73.9976 82.8404 73.4534V63.8947C82.8404 63.6643 83.0271 63.4774 83.2576 63.4774H93.1673C93.8475 63.4774 94.3988 62.9258 94.3988 62.2458C94.3988 61.5656 93.8474 61.0143 93.1673 61.0143H85.9567V56.0175C85.9567 55.3443 85.4179 54.7793 84.7448 54.7819C81.9784 54.7925 79.7245 52.5452 79.7245 49.7812V38.9562C79.7245 37.9061 80.5406 37.0245 81.5435 36.991C82.1205 36.9723 82.6669 37.2098 83.0477 37.6569C83.3468 38.0081 83.4938 38.4641 83.4938 38.9254V41.9395C83.4938 42.6139 84.0134 43.2019 84.6875 43.222C85.385 43.2429 85.9569 42.6838 85.9569 41.991V29.608C85.9569 28.5579 86.773 27.6764 87.776 27.6429C88.3068 27.6255 88.8055 27.8228 89.1788 28.1984C89.5415 28.5634 89.7262 29.0695 89.7262 29.584V41.9393C89.7262 42.6137 90.2458 43.2018 90.9199 43.2219C91.6174 43.2427 92.1893 42.6837 92.1893 41.9908V26.4594C92.1893 25.9984 92.3363 25.5427 92.6353 25.192C93.0165 24.745 93.5628 24.5072 94.1394 24.5264C95.1423 24.5599 95.9584 25.4415 95.9584 26.4916V41.9393C95.9584 42.6137 96.478 43.2018 97.1522 43.2219C97.8496 43.2427 98.4215 42.6837 98.4215 41.9908V29.581C98.4215 29.0707 98.6037 28.5688 98.9619 28.2051C99.3363 27.825 99.8313 27.6249 100.372 27.6425C101.375 27.676 102.191 28.5576 102.191 29.6075V41.9391C102.191 42.6136 102.71 43.2016 103.384 43.2217C104.082 43.2426 104.654 42.6835 104.654 41.9907V32.6901C104.654 32.2286 104.802 31.7726 105.101 31.4219C105.482 30.9765 106.027 30.7388 106.604 30.7585C107.607 30.792 108.423 31.6736 108.423 32.7236V49.7814C108.423 52.5453 106.169 54.7928 103.403 54.782C102.729 54.7794 102.191 55.3445 102.191 56.0177V61.0144H99.1664C98.4862 61.0144 97.9349 61.5659 97.9349 62.246C97.9349 62.9261 98.4864 63.4775 99.1664 63.4775H104.89C105.12 63.4775 105.307 63.6643 105.307 63.8947V74.0543C105.266 74.0662 105.226 74.0785 105.185 74.0908L105.183 74.0914C105.126 74.1086 105.069 74.1259 105.012 74.1422ZM107.77 63.8948V73.2322C121.637 68.0425 131.537 54.6564 131.537 39C131.537 33.2966 130.222 27.8949 127.882 23.0801L121.432 29.53C120.888 30.074 120.165 30.3737 119.395 30.3737C118.626 30.3737 117.903 30.074 117.359 29.53L117.192 29.3633L114.455 32.1003C116.536 35.0141 116.27 39.0996 113.656 41.7133L110.896 44.4736L110.89 44.4785L110.886 44.4821V49.7814C110.886 53.4775 108.185 56.5549 104.654 57.1437V61.0144H104.89C106.478 61.0144 107.77 62.3066 107.77 63.8948Z" fill="#6F9CD6"/>
</svg>
