<svg width="171" height="191" viewBox="0 0 171 191" fill="none" xmlns="http://www.w3.org/2000/svg">
<path d="M22.9072 158.5V147.836H26.3936C27.5508 147.836 28.4199 148.075 29.001 148.554C29.5869 149.032 29.8799 149.74 29.8799 150.678C29.8799 151.176 29.7383 151.618 29.4551 152.003C29.1719 152.384 28.7861 152.68 28.2979 152.89C28.874 153.051 29.3281 153.358 29.6602 153.812C29.9971 154.262 30.1655 154.799 30.1655 155.424C30.1655 156.381 29.8555 157.133 29.2354 157.68C28.6152 158.227 27.7388 158.5 26.606 158.5H22.9072ZM24.3135 153.512V157.35H26.6353C27.2896 157.35 27.8047 157.182 28.1807 156.845C28.5615 156.503 28.752 156.034 28.752 155.438C28.752 154.154 28.0537 153.512 26.6572 153.512H24.3135ZM24.3135 152.384H26.4375C27.0527 152.384 27.5435 152.23 27.9097 151.923C28.2808 151.615 28.4663 151.198 28.4663 150.67C28.4663 150.084 28.2954 149.66 27.9536 149.396C27.6118 149.127 27.0918 148.993 26.3936 148.993H24.3135V152.384ZM33.52 153.307H35.5781C36.4766 153.317 37.187 153.551 37.7095 154.01C38.2319 154.469 38.4932 155.092 38.4932 155.878C38.4932 156.669 38.2246 157.304 37.6875 157.782C37.1504 158.261 36.4277 158.5 35.5195 158.5H32.165V150.575H33.52V153.307ZM41.3203 158.5H39.958V150.575H41.3203V158.5ZM33.52 154.413V157.394H35.5342C36.042 157.394 36.4351 157.265 36.7134 157.006C36.9917 156.742 37.1309 156.383 37.1309 155.929C37.1309 155.49 36.9941 155.131 36.7207 154.853C36.4521 154.569 36.0737 154.423 35.5854 154.413H33.52ZM46.8647 157.541C47.3481 157.541 47.7705 157.394 48.1318 157.101C48.4932 156.808 48.6934 156.442 48.7324 156.002H50.0142C49.9897 156.457 49.8335 156.889 49.5454 157.299C49.2573 157.709 48.8716 158.036 48.3882 158.28C47.9097 158.524 47.4019 158.646 46.8647 158.646C45.7856 158.646 44.9263 158.288 44.2866 157.57C43.6519 156.847 43.3345 155.861 43.3345 154.611V154.384C43.3345 153.612 43.4761 152.926 43.7593 152.326C44.0425 151.725 44.4478 151.259 44.9751 150.927C45.5073 150.595 46.1348 150.429 46.8574 150.429C47.7461 150.429 48.4834 150.695 49.0693 151.227C49.6602 151.759 49.9751 152.45 50.0142 153.3H48.7324C48.6934 152.787 48.498 152.367 48.1465 152.04C47.7998 151.708 47.3701 151.542 46.8574 151.542C46.1689 151.542 45.6343 151.791 45.2534 152.289C44.8774 152.782 44.6895 153.498 44.6895 154.435V154.691C44.6895 155.604 44.8774 156.308 45.2534 156.801C45.6294 157.294 46.1665 157.541 46.8647 157.541ZM51.1787 154.464C51.1787 153.688 51.3301 152.99 51.6328 152.37C51.9404 151.75 52.3652 151.271 52.9072 150.934C53.4541 150.597 54.0767 150.429 54.7749 150.429C55.854 150.429 56.7256 150.802 57.3896 151.549C58.0586 152.296 58.3931 153.29 58.3931 154.53V154.625C58.3931 155.397 58.2441 156.09 57.9463 156.706C57.6533 157.316 57.231 157.792 56.6792 158.134C56.1323 158.476 55.5024 158.646 54.7896 158.646C53.7153 158.646 52.8438 158.273 52.1748 157.526C51.5107 156.779 51.1787 155.79 51.1787 154.56V154.464ZM52.541 154.625C52.541 155.504 52.7437 156.21 53.1489 156.742C53.5591 157.274 54.106 157.541 54.7896 157.541C55.478 157.541 56.0249 157.272 56.4302 156.735C56.8354 156.193 57.0381 155.436 57.0381 154.464C57.0381 153.595 56.8306 152.892 56.4155 152.355C56.0054 151.813 55.4585 151.542 54.7749 151.542C54.106 151.542 53.5664 151.808 53.1562 152.34C52.7461 152.873 52.541 153.634 52.541 154.625ZM62.5605 155.124H61.5718V158.5H60.2095V150.575H61.5718V153.93H62.458L65.124 150.575H66.7646L63.6299 154.384L67.0283 158.5H65.3071L62.5605 155.124ZM73.3198 150.575H74.6748V158.5H73.3198V152.721L69.665 158.5H68.3101V150.575H69.665V156.361L73.3198 150.575ZM81.9771 150.575H83.332V158.5H81.9771V152.721L78.3223 158.5H76.9673V150.575H78.3223V156.361L81.9771 150.575ZM82.3433 147.689C82.3433 148.28 82.1406 148.756 81.7354 149.118C81.335 149.474 80.8076 149.652 80.1533 149.652C79.499 149.652 78.9692 149.472 78.564 149.11C78.1587 148.749 77.9561 148.275 77.9561 147.689H79.062C79.062 148.031 79.1548 148.3 79.3403 148.495C79.5259 148.686 79.7969 148.781 80.1533 148.781C80.4951 148.781 80.7612 148.686 80.9517 148.495C81.147 148.305 81.2446 148.036 81.2446 147.689H82.3433ZM91.8208 156.515L93.6665 150.575H95.1167L91.9307 159.723C91.4375 161.042 90.6538 161.701 89.5796 161.701L89.3232 161.679L88.8179 161.583V160.485L89.1841 160.514C89.6431 160.514 89.9995 160.421 90.2534 160.236C90.5122 160.05 90.7246 159.711 90.8906 159.218L91.1909 158.412L88.3638 150.575H89.8433L91.8208 156.515ZM103.027 154.625C103.027 155.832 102.751 156.803 102.199 157.541C101.647 158.278 100.9 158.646 99.958 158.646C98.9961 158.646 98.2393 158.341 97.6875 157.731V161.547H96.3325V150.575H97.5703L97.6362 151.454C98.188 150.771 98.9546 150.429 99.936 150.429C100.888 150.429 101.64 150.788 102.192 151.505C102.749 152.223 103.027 153.222 103.027 154.501V154.625ZM101.672 154.472C101.672 153.578 101.481 152.873 101.101 152.355C100.72 151.837 100.197 151.579 99.5332 151.579C98.7129 151.579 98.0977 151.942 97.6875 152.67V156.457C98.0928 157.179 98.7129 157.541 99.5479 157.541C100.197 157.541 100.712 157.284 101.093 156.771C101.479 156.254 101.672 155.487 101.672 154.472ZM104.396 154.464C104.396 153.688 104.548 152.99 104.851 152.37C105.158 151.75 105.583 151.271 106.125 150.934C106.672 150.597 107.294 150.429 107.993 150.429C109.072 150.429 109.943 150.802 110.607 151.549C111.276 152.296 111.611 153.29 111.611 154.53V154.625C111.611 155.397 111.462 156.09 111.164 156.706C110.871 157.316 110.449 157.792 109.897 158.134C109.35 158.476 108.72 158.646 108.007 158.646C106.933 158.646 106.062 158.273 105.393 157.526C104.729 156.779 104.396 155.79 104.396 154.56V154.464ZM105.759 154.625C105.759 155.504 105.961 156.21 106.367 156.742C106.777 157.274 107.324 157.541 108.007 157.541C108.696 157.541 109.243 157.272 109.648 156.735C110.053 156.193 110.256 155.436 110.256 154.464C110.256 153.595 110.048 152.892 109.633 152.355C109.223 151.813 108.676 151.542 107.993 151.542C107.324 151.542 106.784 151.808 106.374 152.34C105.964 152.873 105.759 153.634 105.759 154.625ZM113.435 158.5V150.575H116.525C117.58 150.575 118.388 150.761 118.95 151.132C119.516 151.498 119.799 152.038 119.799 152.75C119.799 153.117 119.689 153.449 119.47 153.747C119.25 154.04 118.925 154.264 118.496 154.42C118.974 154.533 119.357 154.752 119.646 155.08C119.938 155.407 120.085 155.797 120.085 156.251C120.085 156.979 119.816 157.536 119.279 157.921C118.747 158.307 117.993 158.5 117.016 158.5H113.435ZM114.79 155.021V157.409H117.031C117.597 157.409 118.02 157.304 118.298 157.094C118.581 156.884 118.723 156.588 118.723 156.208C118.723 155.417 118.142 155.021 116.979 155.021H114.79ZM114.79 153.937H116.54C117.81 153.937 118.444 153.566 118.444 152.824C118.444 152.082 117.844 151.698 116.643 151.674H114.79V153.937ZM125.168 158.646C124.094 158.646 123.22 158.295 122.546 157.592C121.872 156.884 121.535 155.939 121.535 154.757V154.508C121.535 153.722 121.684 153.021 121.982 152.406C122.285 151.786 122.705 151.303 123.242 150.956C123.784 150.604 124.37 150.429 125 150.429C126.03 150.429 126.831 150.768 127.402 151.447C127.973 152.125 128.259 153.097 128.259 154.362V154.926H122.89C122.91 155.707 123.137 156.339 123.571 156.823C124.011 157.301 124.567 157.541 125.241 157.541C125.72 157.541 126.125 157.443 126.457 157.248C126.789 157.052 127.08 156.793 127.329 156.471L128.156 157.116C127.492 158.136 126.496 158.646 125.168 158.646ZM125 151.542C124.453 151.542 123.994 151.742 123.623 152.143C123.251 152.538 123.022 153.095 122.934 153.812H126.904V153.71C126.865 153.021 126.679 152.489 126.347 152.113C126.015 151.732 125.566 151.542 125 151.542ZM136.308 158.5H134.953V155.116H131.313V158.5H129.951V150.575H131.313V154.01H134.953V150.575H136.308V158.5ZM139.97 153.307H142.028C142.927 153.317 143.637 153.551 144.16 154.01C144.682 154.469 144.943 155.092 144.943 155.878C144.943 156.669 144.675 157.304 144.138 157.782C143.601 158.261 142.878 158.5 141.97 158.5H138.615V150.575H139.97V153.307ZM139.97 154.413V157.394H141.984C142.492 157.394 142.885 157.265 143.164 157.006C143.442 156.742 143.581 156.383 143.581 155.929C143.581 155.49 143.444 155.131 143.171 154.853C142.902 154.569 142.524 154.423 142.036 154.413H139.97ZM7.98779 181.5H6.63281V174.696H2.98535V181.5H1.62305V173.575H7.98779V181.5ZM16.8574 177.625C16.8574 178.832 16.5815 179.803 16.0298 180.541C15.478 181.278 14.731 181.646 13.7886 181.646C12.8267 181.646 12.0698 181.341 11.5181 180.731V184.547H10.1631V173.575H11.4009L11.4668 174.454C12.0186 173.771 12.7852 173.429 13.7666 173.429C14.7188 173.429 15.4707 173.788 16.0225 174.505C16.5791 175.223 16.8574 176.222 16.8574 177.501V177.625ZM15.5024 177.472C15.5024 176.578 15.312 175.873 14.9312 175.355C14.5503 174.837 14.0278 174.579 13.3638 174.579C12.5435 174.579 11.9282 174.942 11.5181 175.67V179.457C11.9233 180.179 12.5435 180.541 13.3784 180.541C14.0278 180.541 14.543 180.284 14.9238 179.771C15.3096 179.254 15.5024 178.487 15.5024 177.472ZM21.8745 181.646C20.8003 181.646 19.9263 181.295 19.2524 180.592C18.5786 179.884 18.2417 178.939 18.2417 177.757V177.508C18.2417 176.722 18.3906 176.021 18.6885 175.406C18.9912 174.786 19.4111 174.303 19.9482 173.956C20.4902 173.604 21.0762 173.429 21.7061 173.429C22.7363 173.429 23.5371 173.768 24.1084 174.447C24.6797 175.125 24.9653 176.097 24.9653 177.362V177.926H19.5967C19.6162 178.707 19.8433 179.339 20.2778 179.823C20.7173 180.301 21.2739 180.541 21.9478 180.541C22.4263 180.541 22.8315 180.443 23.1636 180.248C23.4956 180.052 23.7861 179.793 24.0352 179.471L24.8628 180.116C24.1987 181.136 23.2026 181.646 21.8745 181.646ZM21.7061 174.542C21.1592 174.542 20.7002 174.742 20.3291 175.143C19.958 175.538 19.7285 176.095 19.6406 176.812H23.6104V176.71C23.5713 176.021 23.3857 175.489 23.0537 175.113C22.7217 174.732 22.2725 174.542 21.7061 174.542ZM26.4741 180.394L26.9429 179.815C27.4702 179.132 27.7705 178.106 27.8438 176.739L27.9683 173.575H33.0732V180.394H34.0913V183.829H32.7363V181.5H27.2065V183.829H25.8516L25.8589 180.394H26.4741ZM28.0781 180.394H31.7183V174.828H29.2793L29.1987 176.717C29.1157 178.294 28.7422 179.52 28.0781 180.394ZM35.2339 177.464C35.2339 176.688 35.3853 175.99 35.688 175.37C35.9956 174.75 36.4204 174.271 36.9624 173.934C37.5093 173.597 38.1318 173.429 38.8301 173.429C39.9092 173.429 40.7808 173.802 41.4448 174.549C42.1138 175.296 42.4482 176.29 42.4482 177.53V177.625C42.4482 178.397 42.2993 179.09 42.0015 179.706C41.7085 180.316 41.2861 180.792 40.7344 181.134C40.1875 181.476 39.5576 181.646 38.8447 181.646C37.7705 181.646 36.8989 181.273 36.23 180.526C35.5659 179.779 35.2339 178.79 35.2339 177.56V177.464ZM36.5962 177.625C36.5962 178.504 36.7988 179.21 37.2041 179.742C37.6143 180.274 38.1611 180.541 38.8447 180.541C39.5332 180.541 40.0801 180.272 40.4854 179.735C40.8906 179.193 41.0933 178.436 41.0933 177.464C41.0933 176.595 40.8857 175.892 40.4707 175.355C40.0605 174.813 39.5137 174.542 38.8301 174.542C38.1611 174.542 37.6216 174.808 37.2114 175.34C36.8013 175.873 36.5962 176.634 36.5962 177.625ZM47.3262 180.541C47.8096 180.541 48.2319 180.394 48.5933 180.101C48.9546 179.808 49.1548 179.442 49.1938 179.002H50.4756C50.4512 179.457 50.2949 179.889 50.0068 180.299C49.7188 180.709 49.333 181.036 48.8496 181.28C48.3711 181.524 47.8633 181.646 47.3262 181.646C46.2471 181.646 45.3877 181.288 44.748 180.57C44.1133 179.847 43.7959 178.861 43.7959 177.611V177.384C43.7959 176.612 43.9375 175.926 44.2207 175.326C44.5039 174.725 44.9092 174.259 45.4365 173.927C45.9688 173.595 46.5962 173.429 47.3188 173.429C48.2075 173.429 48.9448 173.695 49.5308 174.227C50.1216 174.759 50.4365 175.45 50.4756 176.3H49.1938C49.1548 175.787 48.9595 175.367 48.6079 175.04C48.2612 174.708 47.8315 174.542 47.3188 174.542C46.6304 174.542 46.0957 174.791 45.7148 175.289C45.3389 175.782 45.1509 176.498 45.1509 177.435V177.691C45.1509 178.604 45.3389 179.308 45.7148 179.801C46.0908 180.294 46.6279 180.541 47.3262 180.541ZM57.8877 174.674H55.229V181.5H53.874V174.674H51.2666V173.575H57.8877V174.674ZM63.9814 181.5C63.9033 181.344 63.8398 181.065 63.791 180.665C63.1611 181.319 62.4092 181.646 61.5352 181.646C60.7539 181.646 60.1118 181.427 59.6089 180.987C59.1108 180.543 58.8618 179.981 58.8618 179.303C58.8618 178.478 59.1743 177.838 59.7993 177.384C60.4292 176.925 61.313 176.695 62.4507 176.695H63.769V176.073C63.769 175.599 63.6274 175.223 63.3442 174.945C63.061 174.662 62.6436 174.52 62.0918 174.52C61.6084 174.52 61.2031 174.642 60.876 174.886C60.5488 175.13 60.3853 175.426 60.3853 175.772H59.0229C59.0229 175.377 59.1621 174.996 59.4404 174.63C59.7236 174.259 60.1045 173.966 60.583 173.751C61.0664 173.536 61.5962 173.429 62.1724 173.429C63.0854 173.429 63.8008 173.658 64.3184 174.117C64.8359 174.571 65.1045 175.199 65.124 176V179.647C65.124 180.375 65.2168 180.953 65.4023 181.383V181.5H63.9814ZM61.7329 180.467C62.1577 180.467 62.5605 180.357 62.9414 180.138C63.3223 179.918 63.5981 179.632 63.769 179.281V177.655H62.707C61.0469 177.655 60.2168 178.141 60.2168 179.112C60.2168 179.537 60.3584 179.869 60.6416 180.108C60.9248 180.348 61.2886 180.467 61.7329 180.467ZM67.3726 181.5V173.575H70.4634C71.5181 173.575 72.3262 173.761 72.8877 174.132C73.4541 174.498 73.7373 175.038 73.7373 175.75C73.7373 176.117 73.6274 176.449 73.4077 176.747C73.188 177.04 72.8633 177.264 72.4336 177.42C72.9121 177.533 73.2954 177.752 73.5835 178.08C73.8765 178.407 74.0229 178.797 74.0229 179.251C74.0229 179.979 73.7544 180.536 73.2173 180.921C72.6851 181.307 71.9307 181.5 70.9541 181.5H67.3726ZM68.7275 178.021V180.409H70.9688C71.5352 180.409 71.9575 180.304 72.2358 180.094C72.519 179.884 72.6606 179.588 72.6606 179.208C72.6606 178.417 72.0796 178.021 70.9175 178.021H68.7275ZM68.7275 176.937H70.478C71.7476 176.937 72.3823 176.566 72.3823 175.824C72.3823 175.082 71.7817 174.698 70.5806 174.674H68.7275V176.937ZM82.314 173.575V181.5H80.9517V174.696H78.2563L78.0952 177.662C78.0073 179.024 77.7778 179.999 77.4067 180.584C77.0405 181.17 76.457 181.476 75.6562 181.5H75.1143V180.306L75.5024 180.277C75.9419 180.228 76.2568 179.974 76.4473 179.515C76.6377 179.056 76.7598 178.207 76.8135 176.966L76.96 173.575H82.314ZM90.5464 173.575V181.5H89.1841V178.417H87.1406L85.2729 181.5H83.8081L85.8003 178.211C85.2925 178.026 84.9019 177.74 84.6284 177.354C84.3599 176.964 84.2256 176.51 84.2256 175.992C84.2256 175.27 84.4966 174.688 85.0386 174.249C85.5806 173.805 86.3057 173.58 87.2139 173.575H90.5464ZM85.5879 176.007C85.5879 176.393 85.7197 176.705 85.9834 176.944C86.2471 177.179 86.5962 177.298 87.0308 177.303H89.1841V174.674H87.2358C86.7329 174.674 86.3325 174.798 86.0347 175.047C85.7368 175.292 85.5879 175.611 85.5879 176.007ZM96.0103 181.646C94.936 181.646 94.062 181.295 93.3882 180.592C92.7144 179.884 92.3774 178.939 92.3774 177.757V177.508C92.3774 176.722 92.5264 176.021 92.8242 175.406C93.127 174.786 93.5469 174.303 94.084 173.956C94.626 173.604 95.2119 173.429 95.8418 173.429C96.8721 173.429 97.6729 173.768 98.2441 174.447C98.8154 175.125 99.1011 176.097 99.1011 177.362V177.926H93.7324C93.752 178.707 93.979 179.339 94.4136 179.823C94.853 180.301 95.4097 180.541 96.0835 180.541C96.562 180.541 96.9673 180.443 97.2993 180.248C97.6313 180.052 97.9219 179.793 98.1709 179.471L98.9985 180.116C98.3345 181.136 97.3384 181.646 96.0103 181.646ZM95.8418 174.542C95.2949 174.542 94.8359 174.742 94.4648 175.143C94.0938 175.538 93.8643 176.095 93.7764 176.812H97.7461V176.71C97.707 176.021 97.5215 175.489 97.1895 175.113C96.8574 174.732 96.4082 174.542 95.8418 174.542ZM105.239 179.706L107.934 173.575H109.626V181.5H108.271V175.736L105.708 181.5H104.77L102.155 175.611V181.5H100.8V173.575H102.558L105.239 179.706ZM113.288 176.307H115.346C116.245 176.317 116.955 176.551 117.478 177.01C118 177.469 118.261 178.092 118.261 178.878C118.261 179.669 117.993 180.304 117.456 180.782C116.918 181.261 116.196 181.5 115.288 181.5H111.933V173.575H113.288V176.307ZM121.088 181.5H119.726V173.575H121.088V181.5ZM113.288 177.413V180.394H115.302C115.81 180.394 116.203 180.265 116.481 180.006C116.76 179.742 116.899 179.383 116.899 178.929C116.899 178.49 116.762 178.131 116.489 177.853C116.22 177.569 115.842 177.423 115.354 177.413H113.288ZM126.113 176.468L127.871 173.575H129.453L126.86 177.494L129.533 181.5H127.966L126.135 178.534L124.304 181.5H122.729L125.402 177.494L122.81 173.575H124.377L126.113 176.468ZM137.209 179.515L139.055 173.575H140.505L137.319 182.723C136.826 184.042 136.042 184.701 134.968 184.701L134.711 184.679L134.206 184.583V183.485L134.572 183.514C135.031 183.514 135.388 183.421 135.642 183.236C135.9 183.05 136.113 182.711 136.279 182.218L136.579 181.412L133.752 173.575H135.231L137.209 179.515ZM144.797 180.541C145.28 180.541 145.703 180.394 146.064 180.101C146.425 179.808 146.625 179.442 146.665 179.002H147.946C147.922 179.457 147.766 179.889 147.478 180.299C147.189 180.709 146.804 181.036 146.32 181.28C145.842 181.524 145.334 181.646 144.797 181.646C143.718 181.646 142.858 181.288 142.219 180.57C141.584 179.847 141.267 178.861 141.267 177.611V177.384C141.267 176.612 141.408 175.926 141.691 175.326C141.975 174.725 142.38 174.259 142.907 173.927C143.439 173.595 144.067 173.429 144.79 173.429C145.678 173.429 146.416 173.695 147.001 174.227C147.592 174.759 147.907 175.45 147.946 176.3H146.665C146.625 175.787 146.43 175.367 146.079 175.04C145.732 174.708 145.302 174.542 144.79 174.542C144.101 174.542 143.566 174.791 143.186 175.289C142.81 175.782 142.622 176.498 142.622 177.435V177.691C142.622 178.604 142.81 179.308 143.186 179.801C143.562 180.294 144.099 180.541 144.797 180.541ZM155.966 173.575V181.5H154.604V174.696H151.909L151.748 177.662C151.66 179.024 151.43 179.999 151.059 180.584C150.693 181.17 150.109 181.476 149.309 181.5H148.767V180.306L149.155 180.277C149.594 180.228 149.909 179.974 150.1 179.515C150.29 179.056 150.412 178.207 150.466 176.966L150.612 173.575H155.966ZM160.734 179.515L162.58 173.575H164.03L160.844 182.723C160.351 184.042 159.567 184.701 158.493 184.701L158.237 184.679L157.731 184.583V183.485L158.098 183.514C158.557 183.514 158.913 183.421 159.167 183.236C159.426 183.05 159.638 182.711 159.804 182.218L160.104 181.412L157.277 173.575H158.757L160.734 179.515ZM170.366 174.696H166.711V181.5H165.349V173.575H170.366V174.696Z" fill="#4A4A4A"/>
<path d="M47.3477 115.906H45.668V122H43.207V107.781H45.668V113.758H47.0254L51.2051 107.781H54.2324L49.3496 114.588L54.6621 122H51.6934L47.3477 115.906ZM62.1133 122C62.0091 121.798 61.918 121.469 61.8398 121.014C61.0846 121.801 60.1602 122.195 59.0664 122.195C58.0052 122.195 57.1393 121.893 56.4688 121.287C55.7982 120.682 55.4629 119.933 55.4629 119.041C55.4629 117.915 55.8796 117.052 56.7129 116.453C57.5527 115.848 58.7507 115.545 60.3066 115.545H61.7617V114.852C61.7617 114.305 61.6087 113.868 61.3027 113.543C60.9967 113.211 60.5312 113.045 59.9062 113.045C59.3659 113.045 58.9232 113.182 58.5781 113.455C58.2331 113.722 58.0605 114.064 58.0605 114.48H55.6875C55.6875 113.901 55.8796 113.361 56.2637 112.859C56.6478 112.352 57.1686 111.954 57.8262 111.668C58.4902 111.382 59.2292 111.238 60.043 111.238C61.2799 111.238 62.2663 111.551 63.002 112.176C63.7376 112.794 64.1152 113.667 64.1348 114.793V119.559C64.1348 120.509 64.2682 121.268 64.5352 121.834V122H62.1133ZM59.5059 120.291C59.9746 120.291 60.4141 120.177 60.8242 119.949C61.2409 119.721 61.5534 119.415 61.7617 119.031V117.039H60.4824C59.6035 117.039 58.9427 117.192 58.5 117.498C58.0573 117.804 57.8359 118.237 57.8359 118.797C57.8359 119.253 57.9857 119.617 58.2852 119.891C58.5911 120.158 58.998 120.291 59.5059 120.291ZM75.0918 122H72.7188V118.475C72.1068 118.618 71.4622 118.689 70.7852 118.689C69.3398 118.689 68.2363 118.344 67.4746 117.654C66.7129 116.958 66.332 115.962 66.332 114.666V111.424H68.7051V114.666C68.7051 115.434 68.8743 115.978 69.2129 116.297C69.5579 116.616 70.082 116.775 70.7852 116.775C71.4232 116.775 72.0677 116.701 72.7188 116.551V111.434H75.0918V122ZM82.2695 122.195C80.7656 122.195 79.5449 121.723 78.6074 120.779C77.6764 119.829 77.2109 118.566 77.2109 116.99V116.697C77.2109 115.643 77.4128 114.702 77.8164 113.875C78.2266 113.042 78.7995 112.394 79.5352 111.932C80.2708 111.469 81.0911 111.238 81.9961 111.238C83.4349 111.238 84.5449 111.697 85.3262 112.615C86.1139 113.533 86.5078 114.832 86.5078 116.512V117.469H79.6035C79.6751 118.341 79.9648 119.031 80.4727 119.539C80.987 120.047 81.6315 120.301 82.4062 120.301C83.4935 120.301 84.3789 119.861 85.0625 118.982L86.3418 120.203C85.9186 120.835 85.3522 121.326 84.6426 121.678C83.9395 122.023 83.1484 122.195 82.2695 122.195ZM81.9863 113.143C81.3353 113.143 80.8079 113.37 80.4043 113.826C80.0072 114.282 79.7533 114.917 79.6426 115.73H84.1641V115.555C84.112 114.76 83.9004 114.161 83.5293 113.758C83.1582 113.348 82.6439 113.143 81.9863 113.143ZM92.6992 120.301C93.2917 120.301 93.7832 120.128 94.1738 119.783C94.5645 119.438 94.7728 119.012 94.7988 118.504H97.0352C97.0091 119.161 96.804 119.777 96.4199 120.35C96.0358 120.916 95.515 121.365 94.8574 121.697C94.1999 122.029 93.4902 122.195 92.7285 122.195C91.2507 122.195 90.0788 121.717 89.2129 120.76C88.347 119.803 87.9141 118.481 87.9141 116.795V116.551C87.9141 114.943 88.3438 113.657 89.2031 112.693C90.0625 111.723 91.2344 111.238 92.7188 111.238C93.9753 111.238 94.9974 111.606 95.7852 112.342C96.5794 113.071 96.9961 114.031 97.0352 115.223H94.7988C94.7728 114.617 94.5645 114.119 94.1738 113.729C93.7897 113.338 93.2982 113.143 92.6992 113.143C91.931 113.143 91.3385 113.423 90.9219 113.982C90.5052 114.536 90.2936 115.379 90.2871 116.512V116.893C90.2871 118.038 90.4922 118.895 90.9023 119.461C91.319 120.021 91.918 120.301 92.6992 120.301ZM107.143 113.318H103.715V122H101.342V113.318H97.9531V111.434H107.143V113.318ZM108.91 122V111.434H113.197C114.643 111.434 115.743 111.688 116.498 112.195C117.253 112.697 117.631 113.419 117.631 114.363C117.631 114.852 117.478 115.291 117.172 115.682C116.872 116.066 116.426 116.362 115.834 116.57C116.524 116.714 117.071 117.003 117.475 117.439C117.878 117.876 118.08 118.39 118.08 118.982C118.08 119.965 117.715 120.714 116.986 121.229C116.264 121.743 115.222 122 113.861 122H108.91ZM111.283 117.498V120.125H113.881C115.098 120.125 115.707 119.689 115.707 118.816C115.707 117.938 115.089 117.498 113.852 117.498H111.283ZM111.283 115.799H113.236C114.584 115.799 115.258 115.402 115.258 114.607C115.258 113.774 114.62 113.344 113.344 113.318H111.283V115.799ZM119.691 116.619C119.691 115.584 119.896 114.653 120.307 113.826C120.717 112.993 121.293 112.355 122.035 111.912C122.777 111.463 123.63 111.238 124.594 111.238C126.02 111.238 127.175 111.697 128.061 112.615C128.952 113.533 129.434 114.751 129.506 116.268L129.516 116.824C129.516 117.866 129.314 118.797 128.91 119.617C128.513 120.438 127.94 121.072 127.191 121.521C126.449 121.971 125.59 122.195 124.613 122.195C123.122 122.195 121.928 121.701 121.029 120.711C120.137 119.715 119.691 118.39 119.691 116.736V116.619ZM122.064 116.824C122.064 117.911 122.289 118.764 122.738 119.383C123.188 119.995 123.812 120.301 124.613 120.301C125.414 120.301 126.036 119.988 126.479 119.363C126.928 118.738 127.152 117.824 127.152 116.619C127.152 115.551 126.921 114.705 126.459 114.08C126.003 113.455 125.382 113.143 124.594 113.143C123.819 113.143 123.204 113.452 122.748 114.07C122.292 114.682 122.064 115.6 122.064 116.824Z" fill="#4A4A4A"/>
<path d="M118.024 27.2103L111.506 25.9044C111.075 24.5261 110.521 23.1875 109.854 21.9087L113.541 16.3667C114.631 14.7294 114.414 12.5313 113.025 11.1395L110.23 8.33945C108.841 6.94779 106.647 6.72978 105.013 7.82178L99.4819 11.5164C98.2055 10.8481 96.8693 10.2934 95.4941 9.86091L94.1904 3.33023C93.8053 1.4005 92.1004 0 90.1364 0H86.1839C84.2201 0 82.5149 1.4005 82.1298 3.33023L80.8261 9.86091C79.4507 10.2934 78.1145 10.8481 76.8382 11.5164L71.3071 7.82178C69.6729 6.73024 67.4787 6.94764 66.09 8.33914L63.2953 11.1395C61.9066 12.531 61.6895 14.7292 62.7789 16.3664L66.4664 21.9084C65.7993 23.1873 65.2457 24.526 64.8141 25.9041L58.2961 27.2101C56.3703 27.5962 54.9724 29.3044 54.9724 31.2724V35.2322C54.9724 37.2001 56.3701 38.9086 58.2961 39.2945L62.5162 40.14C63.182 40.2731 63.8294 39.8408 63.9625 39.1738C64.0955 38.5069 63.6638 37.858 62.9982 37.7247L58.7781 36.8792C57.9975 36.7231 57.4308 36.0302 57.4308 35.2325V31.2727C57.4308 30.475 57.9975 29.7821 58.7781 29.6258L66.0224 28.1741C66.4761 28.0832 66.8404 27.7447 66.9651 27.2982C67.4372 25.6072 68.1123 23.9752 68.971 22.4475C69.1982 22.0435 69.1795 21.5458 68.9228 21.1599L64.8244 15.0002C64.3827 14.3365 64.4709 13.4451 65.0339 12.8813L67.8287 10.0809C68.3917 9.51676 69.281 9.42871 69.9435 9.87127L76.0912 13.9775C76.4762 14.2348 76.9729 14.2534 77.3763 14.026C78.9012 13.1654 80.5299 12.4893 82.2175 12.0163C82.6631 11.8913 83.0008 11.5265 83.0918 11.0717L84.5406 3.81332C84.6968 3.03103 85.388 2.46325 86.1841 2.46325H90.1365C90.9327 2.46325 91.624 3.03103 91.78 3.81332L93.2289 11.0717C93.3196 11.5265 93.6575 11.8913 94.1031 12.0163C95.7906 12.4893 97.4194 13.1654 98.9443 14.026C99.3477 14.2534 99.8443 14.2348 100.229 13.9775L106.377 9.87111C107.04 9.42855 107.929 9.51661 108.492 10.081L111.287 12.8811C111.85 13.4454 111.938 14.3365 111.496 15.0002L107.398 21.1599C107.141 21.5458 107.122 22.0435 107.35 22.4475C108.208 23.9752 108.883 25.6072 109.356 27.2982C109.48 27.7447 109.845 28.083 110.298 28.1741L117.543 29.6258C118.323 29.7821 118.89 30.475 118.89 31.2727V35.2325C118.89 36.0302 118.323 36.7231 117.543 36.8794L110.298 38.3311C109.845 38.422 109.48 38.7605 109.356 39.2069C108.883 40.8976 108.209 42.5295 107.35 44.0575C107.122 44.4617 107.141 44.9592 107.398 45.3451L111.496 51.5048C111.938 52.1686 111.85 53.06 111.287 53.6238L108.492 56.4242C107.929 56.9883 107.04 57.0763 106.377 56.6338L100.229 52.5275C99.6647 52.1502 98.9014 52.303 98.525 52.8691C98.1483 53.4349 98.3012 54.1996 98.8659 54.5768L105.014 58.6833C105.71 59.1487 106.508 59.3761 107.303 59.3761C108.372 59.3761 109.434 58.9642 110.23 58.1659L113.025 55.3655C114.414 53.974 114.631 51.7759 113.542 50.1386L109.854 44.5967C110.521 43.3176 111.075 41.9789 111.506 40.601L118.024 39.2951C119.95 38.909 121.348 37.2007 121.348 35.2328V31.273C121.348 29.3047 119.95 27.5965 118.024 27.2103Z" fill="#6F9CD6"/>
<path d="M92.2575 42.6949H80.7851C80.1062 42.6949 79.5559 43.246 79.5559 43.9264C79.5559 44.6068 80.1063 45.1579 80.7851 45.1579H92.2575C93.3872 45.1579 94.3061 46.0787 94.3061 47.2106V48.8527C94.3061 49.9847 93.3872 50.9054 92.2575 50.9054H80.7851C80.1062 50.9054 79.5559 51.4568 79.5559 52.137C79.5559 52.8173 80.1063 53.3685 80.7851 53.3685H92.2575C93.3872 53.3685 94.3061 54.2893 94.3061 55.4212V57.0633C94.3061 58.1952 93.3872 59.116 92.2575 59.116H80.7851C80.1062 59.116 79.5559 59.6672 79.5559 60.3475C79.5559 61.0279 80.1063 61.5791 80.7851 61.5791H92.2575C93.3872 61.5791 94.3061 62.4998 94.3061 63.6318V65.2739C94.3061 66.4058 93.3872 67.3265 92.2575 67.3265H80.7851C80.1062 67.3265 79.5559 67.8777 79.5559 68.5581C79.5559 69.2385 80.1063 69.7896 80.7851 69.7896H92.2575C93.3872 69.7896 94.3061 70.7104 94.3061 71.8423V73.4844C94.3061 74.6163 93.3872 75.5371 92.2575 75.5371H69.9917C68.8295 75.5371 67.7356 75.0847 66.9119 74.2635C65.6114 72.9671 63.8948 72.2529 62.0783 72.2529H59.0696V58.7056C59.0696 58.0252 58.5192 57.474 57.8404 57.474C57.1617 57.474 56.6113 58.0252 56.6113 58.7056V75.1266C56.6113 75.3529 56.4275 75.5371 56.2015 75.5371H52.5139V58.7053C52.5139 58.0249 51.9635 57.4737 51.2848 57.4737C50.6061 57.4737 50.0556 58.0249 50.0556 58.7053V75.5368H46.3681C46.1423 75.5368 45.9583 75.3528 45.9583 75.1262V47.2106C45.9583 46.9842 46.1421 46.8001 46.3681 46.8001H56.2015C56.4273 46.8001 56.6113 46.9841 56.6113 47.2106V53.7791C56.6113 54.4594 57.1617 55.0106 57.8404 55.0106C58.5192 55.0106 59.0696 54.4594 59.0696 53.7791V50.0843H62.0333C63.9761 50.0843 65.6944 48.8433 66.309 46.9966L66.7665 45.6206C68.1842 41.3603 68.9029 36.9229 68.9029 32.4316C68.9029 31.2997 69.8219 30.3789 70.9516 30.3789C71.9367 30.3789 72.8627 30.7633 73.5592 31.4612C74.2557 32.1591 74.6392 33.0868 74.6392 34.0739V47.2103C74.6392 47.8905 75.1896 48.4419 75.8683 48.4419C76.5472 48.4419 77.0975 47.8907 77.0975 47.2103V34.0739C77.0975 32.429 76.4583 30.8824 75.2974 29.7193C74.1365 28.5561 72.5931 27.9155 70.9513 27.9155C68.4661 27.9155 66.4443 29.9414 66.4443 32.4313C66.4443 36.6573 65.768 40.8326 64.4341 44.8414L63.9763 46.2173C63.697 47.0568 62.9161 47.6209 62.0328 47.6209H59.0696V47.2103C59.0696 45.6258 57.7828 44.3367 56.2015 44.3367H46.3681C44.7868 44.337 43.5 45.6261 43.5 47.2106V75.1264C43.5 76.7108 44.7868 78.0001 46.3681 78.0001H56.2015C57.783 78.0001 59.0696 76.7108 59.0696 75.1264V74.7158H62.0781C63.2404 74.7158 64.3412 75.1753 65.1778 76.0094C66.4655 77.293 68.1751 78.0001 69.9916 78.0001H92.2575C94.7427 78.0001 96.7644 75.9742 96.7644 73.4843V71.8422C96.7644 70.5495 96.2195 69.382 95.3478 68.5579C96.2195 67.7339 96.7644 66.5664 96.7644 65.2737V63.6316C96.7644 62.339 96.2195 61.1714 95.3478 60.3474C96.2195 59.5233 96.7644 58.3558 96.7644 57.0632V55.421C96.7644 54.1284 96.2195 52.9608 95.3478 52.1368C96.2195 51.3128 96.7644 50.1452 96.7644 48.8526V47.2105C96.7644 44.7207 94.7427 42.6949 92.2575 42.6949Z" fill="#6F9CD6"/>
<path fill-rule="evenodd" clip-rule="evenodd" d="M89.1329 39.4989C88.8048 39.5503 88.4785 39.5751 88.1563 39.5751C85.103 39.5749 82.4115 37.3428 81.9262 34.2275C81.3896 30.7837 83.7495 27.5443 87.187 27.0066C90.6235 26.4686 93.8573 28.8337 94.3937 32.2779C94.9303 35.7218 92.5704 38.9612 89.1329 39.4989ZM91.9651 32.6575C91.6376 30.5554 89.6644 29.1136 87.5662 29.4402C85.4682 29.7684 84.0277 31.7456 84.3553 33.8478C84.6828 35.9498 86.6562 37.3933 88.7541 37.0651C90.8521 36.7368 92.2926 34.7596 91.9651 32.6575Z" fill="#6F9CD6"/>
<path d="M99.2752 45.1579C99.5989 45.1579 99.9218 45.0307 100.163 44.7779C103.779 40.9922 105.391 35.8552 104.585 30.684C104.176 28.057 103.185 25.6395 101.64 23.499C101.242 22.9481 100.474 22.8241 99.9237 23.2228C99.3737 23.6215 99.2502 24.3913 99.648 24.9426C100.963 26.7653 101.808 28.8248 102.156 31.0638C102.843 35.4703 101.469 39.8482 98.3871 43.075C97.9177 43.5664 97.9347 44.346 98.4252 44.8163C98.6636 45.0445 98.9697 45.1579 99.2752 45.1579Z" fill="#6F9CD6"/>
<path d="M98.4108 21.6782C98.8195 21.1351 98.7114 20.3629 98.1692 19.9535C94.5447 17.2156 90.0794 16.0931 85.5963 16.7954C80.4519 17.5998 76.0675 20.6895 73.5671 25.2724C73.2414 25.8693 73.4604 26.6175 74.0559 26.944C74.2431 27.0465 74.4452 27.0952 74.6445 27.0951C75.0794 27.0951 75.5008 26.8634 75.724 26.4542C77.8553 22.5481 81.5917 19.9147 85.9753 19.2293C89.7957 18.6313 93.6006 19.5876 96.6892 21.9206C97.2315 22.3296 98.0022 22.2215 98.4108 21.6782Z" fill="#6F9CD6"/>
</svg>
