<svg width="136" height="194" viewBox="0 0 136 194" fill="none" xmlns="http://www.w3.org/2000/svg">
<path d="M18.6899 158.116C18.5581 159.244 18.1406 160.116 17.4375 160.731C16.7393 161.341 15.8091 161.646 14.647 161.646C13.3872 161.646 12.3765 161.195 11.6147 160.292C10.8579 159.388 10.4795 158.18 10.4795 156.666V155.641C10.4795 154.649 10.6553 153.778 11.0068 153.026C11.3633 152.274 11.8662 151.698 12.5156 151.297C13.165 150.892 13.917 150.689 14.7715 150.689C15.9043 150.689 16.8125 151.007 17.4961 151.642C18.1797 152.271 18.5776 153.146 18.6899 154.264H17.2764C17.1543 153.414 16.8882 152.799 16.478 152.418C16.0728 152.037 15.5039 151.847 14.7715 151.847C13.873 151.847 13.1675 152.179 12.6548 152.843C12.147 153.507 11.8931 154.452 11.8931 155.677V156.71C11.8931 157.867 12.1348 158.788 12.6182 159.471C13.1016 160.155 13.7778 160.497 14.647 160.497C15.4282 160.497 16.0264 160.321 16.4414 159.969C16.8613 159.613 17.1396 158.995 17.2764 158.116H18.6899ZM20.0449 157.464C20.0449 156.688 20.1963 155.99 20.499 155.37C20.8066 154.75 21.2314 154.271 21.7734 153.934C22.3203 153.597 22.9429 153.429 23.6411 153.429C24.7202 153.429 25.5918 153.802 26.2559 154.549C26.9248 155.296 27.2593 156.29 27.2593 157.53V157.625C27.2593 158.397 27.1104 159.09 26.8125 159.706C26.5195 160.316 26.0972 160.792 25.5454 161.134C24.9985 161.476 24.3687 161.646 23.6558 161.646C22.5815 161.646 21.71 161.273 21.041 160.526C20.377 159.779 20.0449 158.79 20.0449 157.56V157.464ZM21.4072 157.625C21.4072 158.504 21.6099 159.21 22.0151 159.742C22.4253 160.274 22.9722 160.541 23.6558 160.541C24.3442 160.541 24.8911 160.272 25.2964 159.735C25.7017 159.193 25.9043 158.436 25.9043 157.464C25.9043 156.595 25.6968 155.892 25.2817 155.355C24.8716 154.813 24.3247 154.542 23.6411 154.542C22.9722 154.542 22.4326 154.808 22.0225 155.34C21.6123 155.873 21.4072 156.634 21.4072 157.625ZM34.686 154.674H32.0273V161.5H30.6724V154.674H28.0649V153.575H34.686V154.674ZM42.6987 157.625C42.6987 158.832 42.4229 159.803 41.8711 160.541C41.3193 161.278 40.5723 161.646 39.6299 161.646C38.668 161.646 37.9111 161.341 37.3594 160.731V164.547H36.0044V153.575H37.2422L37.3081 154.454C37.8599 153.771 38.6265 153.429 39.6079 153.429C40.5601 153.429 41.312 153.788 41.8638 154.505C42.4204 155.223 42.6987 156.222 42.6987 157.501V157.625ZM41.3438 157.472C41.3438 156.578 41.1533 155.873 40.7725 155.355C40.3916 154.837 39.8691 154.579 39.2051 154.579C38.3848 154.579 37.7695 154.942 37.3594 155.67V159.457C37.7646 160.179 38.3848 160.541 39.2197 160.541C39.8691 160.541 40.3843 160.284 40.7651 159.771C41.1509 159.254 41.3438 158.487 41.3438 157.472ZM46.9321 159.515L48.7778 153.575H50.228L47.042 162.723C46.5488 164.042 45.7651 164.701 44.6909 164.701L44.4346 164.679L43.9292 164.583V163.485L44.2954 163.514C44.7544 163.514 45.1108 163.421 45.3647 163.236C45.6235 163.05 45.8359 162.711 46.002 162.218L46.3022 161.412L43.4751 153.575H44.9546L46.9321 159.515ZM50.9678 160.394L51.4365 159.815C51.9639 159.132 52.2642 158.106 52.3374 156.739L52.4619 153.575H57.5669V160.394H58.585V163.829H57.23V161.5H51.7002V163.829H50.3452L50.3525 160.394H50.9678ZM52.5718 160.394H56.2119V154.828H53.7729L53.6924 156.717C53.6094 158.294 53.2358 159.52 52.5718 160.394ZM66.561 161.5H65.2061V158.116H61.5659V161.5H60.2036V153.575H61.5659V157.01H65.2061V153.575H66.561V161.5ZM73.8706 153.575H75.2256V161.5H73.8706V155.721L70.2158 161.5H68.8608V153.575H70.2158V159.361L73.8706 153.575ZM83.3848 161.5H82.0225V158.629C81.4268 158.785 80.8164 158.863 80.1914 158.863C79.2002 158.863 78.4434 158.609 77.9209 158.102C77.4033 157.594 77.1396 156.871 77.1299 155.934V153.568H78.4849V155.978C78.5093 157.159 79.0781 157.75 80.1914 157.75C80.8164 157.75 81.4268 157.672 82.0225 157.516V153.575H83.3848V161.5ZM88.8486 161.646C87.7744 161.646 86.9004 161.295 86.2266 160.592C85.5527 159.884 85.2158 158.939 85.2158 157.757V157.508C85.2158 156.722 85.3647 156.021 85.6626 155.406C85.9653 154.786 86.3853 154.303 86.9224 153.956C87.4644 153.604 88.0503 153.429 88.6802 153.429C89.7104 153.429 90.5112 153.768 91.0825 154.447C91.6538 155.125 91.9395 156.097 91.9395 157.362V157.926H86.5708C86.5903 158.707 86.8174 159.339 87.252 159.823C87.6914 160.301 88.248 160.541 88.9219 160.541C89.4004 160.541 89.8057 160.443 90.1377 160.248C90.4697 160.052 90.7603 159.793 91.0093 159.471L91.8369 160.116C91.1729 161.136 90.1768 161.646 88.8486 161.646ZM88.6802 154.542C88.1333 154.542 87.6743 154.742 87.3032 155.143C86.9321 155.538 86.7026 156.095 86.6147 156.812H90.5845V156.71C90.5454 156.021 90.3599 155.489 90.0278 155.113C89.6958 154.732 89.2466 154.542 88.6802 154.542ZM96.6929 160.541C97.1763 160.541 97.5986 160.394 97.96 160.101C98.3213 159.808 98.5215 159.442 98.5605 159.002H99.8423C99.8179 159.457 99.6616 159.889 99.3735 160.299C99.0854 160.709 98.6997 161.036 98.2163 161.28C97.7378 161.524 97.23 161.646 96.6929 161.646C95.6138 161.646 94.7544 161.288 94.1147 160.57C93.48 159.847 93.1626 158.861 93.1626 157.611V157.384C93.1626 156.612 93.3042 155.926 93.5874 155.326C93.8706 154.725 94.2759 154.259 94.8032 153.927C95.3354 153.595 95.9629 153.429 96.6855 153.429C97.5742 153.429 98.3115 153.695 98.8975 154.227C99.4883 154.759 99.8032 155.45 99.8423 156.3H98.5605C98.5215 155.787 98.3262 155.367 97.9746 155.04C97.6279 154.708 97.1982 154.542 96.6855 154.542C95.9971 154.542 95.4624 154.791 95.0815 155.289C94.7056 155.782 94.5176 156.498 94.5176 157.435V157.691C94.5176 158.604 94.7056 159.308 95.0815 159.801C95.4575 160.294 95.9946 160.541 96.6929 160.541ZM107.254 154.674H104.596V161.5H103.241V154.674H100.633V153.575H107.254V154.674ZM108.697 161.5V153.575H111.788C112.843 153.575 113.651 153.761 114.212 154.132C114.779 154.498 115.062 155.038 115.062 155.75C115.062 156.117 114.952 156.449 114.732 156.747C114.513 157.04 114.188 157.264 113.758 157.42C114.237 157.533 114.62 157.752 114.908 158.08C115.201 158.407 115.348 158.797 115.348 159.251C115.348 159.979 115.079 160.536 114.542 160.921C114.01 161.307 113.255 161.5 112.279 161.5H108.697ZM110.052 158.021V160.409H112.293C112.86 160.409 113.282 160.304 113.561 160.094C113.844 159.884 113.985 159.588 113.985 159.208C113.985 158.417 113.404 158.021 112.242 158.021H110.052ZM110.052 156.937H111.803C113.072 156.937 113.707 156.566 113.707 155.824C113.707 155.082 113.106 154.698 111.905 154.674H110.052V156.937ZM116.783 157.464C116.783 156.688 116.935 155.99 117.237 155.37C117.545 154.75 117.97 154.271 118.512 153.934C119.059 153.597 119.681 153.429 120.379 153.429C121.458 153.429 122.33 153.802 122.994 154.549C123.663 155.296 123.998 156.29 123.998 157.53V157.625C123.998 158.397 123.849 159.09 123.551 159.706C123.258 160.316 122.835 160.792 122.284 161.134C121.737 161.476 121.107 161.646 120.394 161.646C119.32 161.646 118.448 161.273 117.779 160.526C117.115 159.779 116.783 158.79 116.783 157.56V157.464ZM118.146 157.625C118.146 158.504 118.348 159.21 118.753 159.742C119.164 160.274 119.71 160.541 120.394 160.541C121.083 160.541 121.629 160.272 122.035 159.735C122.44 159.193 122.643 158.436 122.643 157.464C122.643 156.595 122.435 155.892 122.02 155.355C121.61 154.813 121.063 154.542 120.379 154.542C119.71 154.542 119.171 154.808 118.761 155.34C118.351 155.873 118.146 156.634 118.146 157.625ZM9.71777 183.541C10.2012 183.541 10.6235 183.394 10.9849 183.101C11.3462 182.808 11.5464 182.442 11.5854 182.002H12.8672C12.8428 182.457 12.6865 182.889 12.3984 183.299C12.1104 183.709 11.7246 184.036 11.2412 184.28C10.7627 184.524 10.2549 184.646 9.71777 184.646C8.63867 184.646 7.7793 184.288 7.13965 183.57C6.50488 182.847 6.1875 181.861 6.1875 180.611V180.384C6.1875 179.612 6.3291 178.926 6.6123 178.326C6.89551 177.725 7.30078 177.259 7.82812 176.927C8.36035 176.595 8.98779 176.429 9.71045 176.429C10.5991 176.429 11.3364 176.695 11.9224 177.227C12.5132 177.759 12.8281 178.45 12.8672 179.3H11.5854C11.5464 178.787 11.3511 178.367 10.9995 178.04C10.6528 177.708 10.2231 177.542 9.71045 177.542C9.02197 177.542 8.4873 177.791 8.10645 178.289C7.73047 178.782 7.54248 179.498 7.54248 180.435V180.691C7.54248 181.604 7.73047 182.308 8.10645 182.801C8.48242 183.294 9.01953 183.541 9.71777 183.541ZM20.7041 182.515L22.5498 176.575H24L20.814 185.723C20.3208 187.042 19.5371 187.701 18.4629 187.701L18.2065 187.679L17.7012 187.583V186.485L18.0674 186.514C18.5264 186.514 18.8828 186.421 19.1367 186.236C19.3955 186.05 19.6079 185.711 19.7739 185.218L20.0742 184.412L17.2471 176.575H18.7266L20.7041 182.515ZM31.6904 184.5H30.3354V181.116H26.6953V184.5H25.333V176.575H26.6953V180.01H30.3354V176.575H31.6904V184.5ZM39 176.575H40.355V184.5H39V178.721L35.3452 184.5H33.9902V176.575H35.3452V182.361L39 176.575ZM42.6548 184.5V176.575H45.7456C46.8003 176.575 47.6084 176.761 48.1699 177.132C48.7363 177.498 49.0195 178.038 49.0195 178.75C49.0195 179.117 48.9097 179.449 48.6899 179.747C48.4702 180.04 48.1455 180.264 47.7158 180.42C48.1943 180.533 48.5776 180.752 48.8657 181.08C49.1587 181.407 49.3052 181.797 49.3052 182.251C49.3052 182.979 49.0366 183.536 48.4995 183.921C47.9673 184.307 47.2129 184.5 46.2363 184.5H42.6548ZM44.0098 181.021V183.409H46.251C46.8174 183.409 47.2397 183.304 47.5181 183.094C47.8013 182.884 47.9429 182.588 47.9429 182.208C47.9429 181.417 47.3618 181.021 46.1997 181.021H44.0098ZM44.0098 179.937H45.7603C47.0298 179.937 47.6646 179.566 47.6646 178.824C47.6646 178.082 47.064 177.698 45.8628 177.674H44.0098V179.937ZM54.3882 184.646C53.314 184.646 52.4399 184.295 51.7661 183.592C51.0923 182.884 50.7554 181.939 50.7554 180.757V180.508C50.7554 179.722 50.9043 179.021 51.2021 178.406C51.5049 177.786 51.9248 177.303 52.4619 176.956C53.0039 176.604 53.5898 176.429 54.2197 176.429C55.25 176.429 56.0508 176.768 56.6221 177.447C57.1934 178.125 57.479 179.097 57.479 180.362V180.926H52.1104C52.1299 181.707 52.3569 182.339 52.7915 182.823C53.231 183.301 53.7876 183.541 54.4614 183.541C54.9399 183.541 55.3452 183.443 55.6772 183.248C56.0093 183.052 56.2998 182.793 56.5488 182.471L57.3765 183.116C56.7124 184.136 55.7163 184.646 54.3882 184.646ZM54.2197 177.542C53.6729 177.542 53.2139 177.742 52.8428 178.143C52.4717 178.538 52.2422 179.095 52.1543 179.812H56.124V179.71C56.085 179.021 55.8994 178.489 55.5674 178.113C55.2354 177.732 54.7861 177.542 54.2197 177.542ZM65.748 180.625C65.748 181.832 65.4722 182.803 64.9204 183.541C64.3687 184.278 63.6216 184.646 62.6792 184.646C61.7173 184.646 60.9604 184.341 60.4087 183.731V187.547H59.0537V176.575H60.2915L60.3574 177.454C60.9092 176.771 61.6758 176.429 62.6572 176.429C63.6094 176.429 64.3613 176.788 64.9131 177.505C65.4697 178.223 65.748 179.222 65.748 180.501V180.625ZM64.3931 180.472C64.3931 179.578 64.2026 178.873 63.8218 178.355C63.4409 177.837 62.9185 177.579 62.2544 177.579C61.4341 177.579 60.8188 177.942 60.4087 178.67V182.457C60.814 183.179 61.4341 183.541 62.269 183.541C62.9185 183.541 63.4336 183.284 63.8145 182.771C64.2002 182.254 64.3931 181.487 64.3931 180.472ZM70.6553 183.541C71.1387 183.541 71.561 183.394 71.9224 183.101C72.2837 182.808 72.4839 182.442 72.5229 182.002H73.8047C73.7803 182.457 73.624 182.889 73.3359 183.299C73.0479 183.709 72.6621 184.036 72.1787 184.28C71.7002 184.524 71.1924 184.646 70.6553 184.646C69.5762 184.646 68.7168 184.288 68.0771 183.57C67.4424 182.847 67.125 181.861 67.125 180.611V180.384C67.125 179.612 67.2666 178.926 67.5498 178.326C67.833 177.725 68.2383 177.259 68.7656 176.927C69.2979 176.595 69.9253 176.429 70.6479 176.429C71.5366 176.429 72.2739 176.695 72.8599 177.227C73.4507 177.759 73.7656 178.45 73.8047 179.3H72.5229C72.4839 178.787 72.2886 178.367 71.937 178.04C71.5903 177.708 71.1606 177.542 70.6479 177.542C69.9595 177.542 69.4248 177.791 69.0439 178.289C68.668 178.782 68.48 179.498 68.48 180.435V180.691C68.48 181.604 68.668 182.308 69.0439 182.801C69.4199 183.294 69.957 183.541 70.6553 183.541ZM80.4551 176.575H81.8101V184.5H80.4551V178.721L76.8003 184.5H75.4453V176.575H76.8003V182.361L80.4551 176.575ZM89.874 177.674H87.2153V184.5H85.8604V177.674H83.2529V176.575H89.874V177.674ZM93.895 184.646C92.8208 184.646 91.9468 184.295 91.2729 183.592C90.5991 182.884 90.2622 181.939 90.2622 180.757V180.508C90.2622 179.722 90.4111 179.021 90.709 178.406C91.0117 177.786 91.4316 177.303 91.9688 176.956C92.5107 176.604 93.0967 176.429 93.7266 176.429C94.7568 176.429 95.5576 176.768 96.1289 177.447C96.7002 178.125 96.9858 179.097 96.9858 180.362V180.926H91.6172C91.6367 181.707 91.8638 182.339 92.2983 182.823C92.7378 183.301 93.2944 183.541 93.9683 183.541C94.4468 183.541 94.8521 183.443 95.1841 183.248C95.5161 183.052 95.8066 182.793 96.0557 182.471L96.8833 183.116C96.2192 184.136 95.2231 184.646 93.895 184.646ZM93.7266 177.542C93.1797 177.542 92.7207 177.742 92.3496 178.143C91.9785 178.538 91.749 179.095 91.6611 179.812H95.6309V179.71C95.5918 179.021 95.4062 178.489 95.0742 178.113C94.7422 177.732 94.293 177.542 93.7266 177.542ZM104.361 177.674H101.703V184.5H100.348V177.674H97.7402V176.575H104.361V177.674ZM110.455 184.5C110.377 184.344 110.313 184.065 110.265 183.665C109.635 184.319 108.883 184.646 108.009 184.646C107.228 184.646 106.585 184.427 106.083 183.987C105.584 183.543 105.335 182.981 105.335 182.303C105.335 181.478 105.648 180.838 106.273 180.384C106.903 179.925 107.787 179.695 108.924 179.695H110.243V179.073C110.243 178.599 110.101 178.223 109.818 177.945C109.535 177.662 109.117 177.52 108.565 177.52C108.082 177.52 107.677 177.642 107.35 177.886C107.022 178.13 106.859 178.426 106.859 178.772H105.497C105.497 178.377 105.636 177.996 105.914 177.63C106.197 177.259 106.578 176.966 107.057 176.751C107.54 176.536 108.07 176.429 108.646 176.429C109.559 176.429 110.274 176.658 110.792 177.117C111.31 177.571 111.578 178.199 111.598 179V182.647C111.598 183.375 111.69 183.953 111.876 184.383V184.5H110.455ZM108.207 183.467C108.631 183.467 109.034 183.357 109.415 183.138C109.796 182.918 110.072 182.632 110.243 182.281V180.655H109.181C107.521 180.655 106.69 181.141 106.69 182.112C106.69 182.537 106.832 182.869 107.115 183.108C107.398 183.348 107.762 183.467 108.207 183.467ZM118.285 182.706L120.98 176.575H122.672V184.5H121.317V178.736L118.753 184.5H117.816L115.201 178.611V184.5H113.846V176.575H115.604L118.285 182.706ZM129.981 176.575H131.336V184.5H129.981V178.721L126.327 184.5H124.972V176.575H126.327V182.361L129.981 176.575Z" fill="#4A4A4A"/>
<path d="M12.9414 125H10.4805V118.682H4.12305V125H1.65234V110.781H4.12305V116.699H10.4805V110.781H12.9414V125ZM21.9551 125C21.8509 124.798 21.7598 124.469 21.6816 124.014C20.9264 124.801 20.002 125.195 18.9082 125.195C17.847 125.195 16.9811 124.893 16.3105 124.287C15.64 123.682 15.3047 122.933 15.3047 122.041C15.3047 120.915 15.7214 120.052 16.5547 119.453C17.3945 118.848 18.5924 118.545 20.1484 118.545H21.6035V117.852C21.6035 117.305 21.4505 116.868 21.1445 116.543C20.8385 116.211 20.373 116.045 19.748 116.045C19.2077 116.045 18.765 116.182 18.4199 116.455C18.0749 116.722 17.9023 117.064 17.9023 117.48H15.5293C15.5293 116.901 15.7214 116.361 16.1055 115.859C16.4896 115.352 17.0104 114.954 17.668 114.668C18.332 114.382 19.071 114.238 19.8848 114.238C21.1217 114.238 22.1081 114.551 22.8438 115.176C23.5794 115.794 23.957 116.667 23.9766 117.793V122.559C23.9766 123.509 24.11 124.268 24.377 124.834V125H21.9551ZM19.3477 123.291C19.8164 123.291 20.2559 123.177 20.666 122.949C21.0827 122.721 21.3952 122.415 21.6035 122.031V120.039H20.3242C19.4453 120.039 18.7845 120.192 18.3418 120.498C17.8991 120.804 17.6777 121.237 17.6777 121.797C17.6777 122.253 17.8275 122.617 18.127 122.891C18.4329 123.158 18.8398 123.291 19.3477 123.291ZM30.002 121.602L32.1504 114.434H34.6797L30.4805 126.602C29.8359 128.379 28.7422 129.268 27.1992 129.268C26.8542 129.268 26.4733 129.209 26.0566 129.092V127.256L26.5059 127.285C27.1048 127.285 27.554 127.174 27.8535 126.953C28.1595 126.738 28.4004 126.374 28.5762 125.859L28.918 124.951L25.207 114.434H27.7656L30.002 121.602ZM39.8066 120.82H38.6055V125H36.2324V114.434H38.6055V118.652H39.6504L42.5703 114.434H45.5L41.6816 119.492L45.8223 125H42.7363L39.8066 120.82ZM46.1152 119.619C46.1152 118.584 46.3203 117.653 46.7305 116.826C47.1406 115.993 47.7168 115.355 48.459 114.912C49.2012 114.463 50.054 114.238 51.0176 114.238C52.4434 114.238 53.599 114.697 54.4844 115.615C55.3763 116.533 55.8581 117.751 55.9297 119.268L55.9395 119.824C55.9395 120.866 55.7376 121.797 55.334 122.617C54.9368 123.438 54.3639 124.072 53.6152 124.521C52.873 124.971 52.0137 125.195 51.0371 125.195C49.5462 125.195 48.3516 124.701 47.4531 123.711C46.5612 122.715 46.1152 121.39 46.1152 119.736V119.619ZM48.4883 119.824C48.4883 120.911 48.7129 121.764 49.1621 122.383C49.6113 122.995 50.2363 123.301 51.0371 123.301C51.8379 123.301 52.4596 122.988 52.9023 122.363C53.3516 121.738 53.5762 120.824 53.5762 119.619C53.5762 118.551 53.3451 117.705 52.8828 117.08C52.4271 116.455 51.8053 116.143 51.0176 116.143C50.2428 116.143 49.6276 116.452 49.1719 117.07C48.7161 117.682 48.4883 118.6 48.4883 119.824ZM62.5996 125.195C61.0957 125.195 59.875 124.723 58.9375 123.779C58.0065 122.829 57.541 121.566 57.541 119.99V119.697C57.541 118.643 57.7428 117.702 58.1465 116.875C58.5566 116.042 59.1296 115.394 59.8652 114.932C60.6009 114.469 61.4212 114.238 62.3262 114.238C63.765 114.238 64.875 114.697 65.6562 115.615C66.444 116.533 66.8379 117.832 66.8379 119.512V120.469H59.9336C60.0052 121.341 60.2949 122.031 60.8027 122.539C61.3171 123.047 61.9616 123.301 62.7363 123.301C63.8236 123.301 64.709 122.861 65.3926 121.982L66.6719 123.203C66.2487 123.835 65.6823 124.326 64.9727 124.678C64.2695 125.023 63.4785 125.195 62.5996 125.195ZM62.3164 116.143C61.6654 116.143 61.138 116.37 60.7344 116.826C60.3372 117.282 60.0833 117.917 59.9727 118.73H64.4941V118.555C64.4421 117.76 64.2305 117.161 63.8594 116.758C63.4883 116.348 62.974 116.143 62.3164 116.143ZM58.6934 111.66C58.6934 111.335 58.8008 111.061 59.0156 110.84C59.237 110.618 59.5397 110.508 59.9238 110.508C60.3079 110.508 60.6107 110.618 60.832 110.84C61.0534 111.061 61.1641 111.335 61.1641 111.66C61.1641 111.986 61.0534 112.259 60.832 112.48C60.6107 112.702 60.3079 112.812 59.9238 112.812C59.5397 112.812 59.237 112.702 59.0156 112.48C58.8008 112.259 58.6934 111.986 58.6934 111.66ZM63.1562 111.67C63.1562 111.344 63.2637 111.071 63.4785 110.85C63.6999 110.628 64.0026 110.518 64.3867 110.518C64.7708 110.518 65.0736 110.628 65.2949 110.85C65.5163 111.071 65.627 111.344 65.627 111.67C65.627 111.995 65.5163 112.269 65.2949 112.49C65.0736 112.712 64.7708 112.822 64.3867 112.822C64.0026 112.822 63.6999 112.712 63.4785 112.49C63.2637 112.269 63.1562 111.995 63.1562 111.67ZM74.9629 122.08L78.0879 114.434H81.0566V125H78.6836V118.008L75.7734 125H74.1621L71.2422 117.969V125H68.8691V114.434H71.8574L74.9629 122.08ZM87.4824 120.82H86.2812V125H83.9082V114.434H86.2812V118.652H87.3262L90.2461 114.434H93.1758L89.3574 119.492L93.498 125H90.4121L87.4824 120.82ZM93.791 119.619C93.791 118.584 93.9961 117.653 94.4062 116.826C94.8164 115.993 95.3926 115.355 96.1348 114.912C96.877 114.463 97.7298 114.238 98.6934 114.238C100.119 114.238 101.275 114.697 102.16 115.615C103.052 116.533 103.534 117.751 103.605 119.268L103.615 119.824C103.615 120.866 103.413 121.797 103.01 122.617C102.613 123.438 102.04 124.072 101.291 124.521C100.549 124.971 99.6895 125.195 98.7129 125.195C97.222 125.195 96.0273 124.701 95.1289 123.711C94.237 122.715 93.791 121.39 93.791 119.736V119.619ZM96.1641 119.824C96.1641 120.911 96.3887 121.764 96.8379 122.383C97.2871 122.995 97.9121 123.301 98.7129 123.301C99.5137 123.301 100.135 122.988 100.578 122.363C101.027 121.738 101.252 120.824 101.252 119.619C101.252 118.551 101.021 117.705 100.559 117.08C100.103 116.455 99.4811 116.143 98.6934 116.143C97.9186 116.143 97.3034 116.452 96.8477 117.07C96.3919 117.682 96.1641 118.6 96.1641 119.824ZM109.963 123.301C110.555 123.301 111.047 123.128 111.438 122.783C111.828 122.438 112.036 122.012 112.062 121.504H114.299C114.273 122.161 114.068 122.777 113.684 123.35C113.299 123.916 112.779 124.365 112.121 124.697C111.464 125.029 110.754 125.195 109.992 125.195C108.514 125.195 107.342 124.717 106.477 123.76C105.611 122.803 105.178 121.481 105.178 119.795V119.551C105.178 117.943 105.607 116.657 106.467 115.693C107.326 114.723 108.498 114.238 109.982 114.238C111.239 114.238 112.261 114.606 113.049 115.342C113.843 116.071 114.26 117.031 114.299 118.223H112.062C112.036 117.617 111.828 117.119 111.438 116.729C111.053 116.338 110.562 116.143 109.963 116.143C109.195 116.143 108.602 116.423 108.186 116.982C107.769 117.536 107.557 118.379 107.551 119.512V119.893C107.551 121.038 107.756 121.895 108.166 122.461C108.583 123.021 109.182 123.301 109.963 123.301ZM124.406 116.318H120.979V125H118.605V116.318H115.217V114.434H124.406V116.318ZM128.547 117.793H130.871C131.737 117.793 132.492 117.943 133.137 118.242C133.781 118.542 134.27 118.962 134.602 119.502C134.94 120.042 135.109 120.671 135.109 121.387C135.109 122.474 134.725 123.346 133.957 124.004C133.189 124.661 132.167 124.993 130.891 125H126.174V114.434H128.547V117.793ZM128.547 119.697V123.105H130.861C131.441 123.105 131.896 122.962 132.229 122.676C132.567 122.383 132.736 121.969 132.736 121.436C132.736 120.902 132.57 120.482 132.238 120.176C131.913 119.863 131.47 119.704 130.91 119.697H128.547Z" fill="#4A4A4A"/>
<path fill-rule="evenodd" clip-rule="evenodd" d="M58.5833 53.8333H64.25H58.5833ZM64.25 53.8333C65.0319 53.8333 65.6666 53.1985 65.6666 52.4166L64.25 53.8333ZM65.6666 52.4166V43.9166V52.4166ZM65.6666 43.9166C65.6666 43.1346 65.0319 42.5 64.25 42.5L65.6666 43.9166ZM64.25 42.5H58.5834H64.25ZM58.5834 42.5C57.8015 42.5 57.1668 43.1346 57.1668 43.9166L58.5834 42.5ZM57.1668 43.9166L57.1666 52.4166L57.1668 43.9166ZM62.8334 45.3334H60V51H62.8334V45.3334Z" fill="#6F9CD6"/>
<path fill-rule="evenodd" clip-rule="evenodd" d="M64.25 36.8334H58.5834C57.8013 36.8334 57.1666 36.1986 57.1667 35.4167V26.9167C57.1667 26.1348 57.8015 25.5001 58.5834 25.5001H64.25C65.0319 25.5001 65.6666 26.1348 65.6666 26.9167V35.4167C65.6666 36.1986 65.0319 36.8334 64.25 36.8334ZM62.8334 28.3334H60V34H62.8334V28.3334Z" fill="#6F9CD6"/>
<path d="M47.9796 26.7141L68.5 14.4019L89.0204 26.7141C89.2485 26.8515 89.5006 26.9166 89.7485 26.9166C90.2301 26.9166 90.6991 26.6716 90.9641 26.2295C91.3678 25.5579 91.1497 24.6882 90.4796 24.2858L69.9166 11.9481V2.83339H77V5.66678H72.75C71.9681 5.66678 71.3334 6.30146 71.3334 7.08339C71.3334 7.86532 71.9681 8.5 72.75 8.5H78.4166C79.1985 8.5 79.8332 7.86532 79.8332 7.08339V1.41661C79.8332 0.634678 79.1985 0 78.4166 0H68.5C67.7181 0 67.0834 0.634678 67.0834 1.41661V11.9481L46.5205 24.2859C45.8505 24.6882 45.6323 25.5581 46.0361 26.2296C46.4368 26.8997 47.3094 27.1178 47.9796 26.7141Z" fill="#6F9CD6"/>
<path d="M41.5834 53.8333C42.3653 53.8333 43 53.1987 43 52.4167V43.9167C43 43.1348 42.3653 42.5001 41.5834 42.5001H35.9166C35.1347 42.5001 34.5 43.1348 34.5 43.9167V46.75C34.5 47.5319 35.1347 48.1666 35.9166 48.1666C36.6985 48.1666 37.3332 47.5319 37.3332 46.75V45.3333H40.1666V52.4167C40.1666 53.1987 40.8013 53.8333 41.5834 53.8333Z" fill="#6F9CD6"/>
<path d="M51.5 72.25V31.1666C51.5 30.3847 50.8653 29.75 50.0834 29.75C49.3014 29.75 48.6667 30.3847 48.6667 31.1666V72.25C48.6667 73.0319 49.3014 73.6666 50.0834 73.6666C50.8653 73.6666 51.5 73.0319 51.5 72.25Z" fill="#6F9CD6"/>
<path fill-rule="evenodd" clip-rule="evenodd" d="M44.4166 79.3334H92.5833C93.3652 79.3334 93.9998 78.6987 93.9998 77.9169C93.9998 77.1349 93.3652 76.5002 92.5833 76.5002H79.8333V62.3336H81.2498C82.0317 62.3336 82.6664 61.6989 82.6664 60.917C82.6664 60.135 82.0317 59.5004 81.2498 59.5004H55.75C54.9681 59.5004 54.3334 60.135 54.3334 60.917C54.3334 61.6989 54.9681 62.3336 55.75 62.3336H57.1666V76.5H44.4166C43.6347 76.5 43 77.1348 43 77.9166C43 78.6986 43.6347 79.3334 44.4166 79.3334ZM69.9166 70.8335C70.6985 70.8335 71.3333 70.1987 71.3333 69.4169C71.3333 68.6349 70.6985 68.0002 69.9166 68.0002V62.3336H77V76.5001H69.9166V70.8335ZM67.0834 62.3334H60V76.5H67.0834V70.8333C66.3015 70.8333 65.6667 70.1985 65.6667 69.4166C65.6667 68.6346 66.3015 68 67.0834 68V62.3334Z" fill="#6F9CD6"/>
<path fill-rule="evenodd" clip-rule="evenodd" d="M95.4168 60.9166H101.083C101.865 60.9166 102.5 61.5513 102.5 62.3333V70.8333C102.5 71.6151 101.865 72.2499 101.083 72.2499H95.4168C94.6349 72.2499 94.0002 71.6151 94.0002 70.8333V62.3333C94.0002 61.5513 94.6349 60.9166 95.4168 60.9166ZM96.8333 69.4166H99.6666V63.75H96.8333V69.4166Z" fill="#6F9CD6"/>
<path fill-rule="evenodd" clip-rule="evenodd" d="M95.4168 43.9166H101.083C101.865 43.9166 102.5 44.5513 102.5 45.3333V53.8333C102.5 54.6151 101.865 55.2499 101.083 55.2499H95.4168C94.6349 55.2499 94.0002 54.6151 94.0002 53.8333V45.3333C94.0002 44.5513 94.6349 43.9166 95.4168 43.9166ZM96.8333 52.4166H99.6666V46.75H96.8333V52.4166Z" fill="#6F9CD6"/>
<path d="M98.25 82.1666H38.75C37.9681 82.1666 37.3334 82.8013 37.3334 83.5832C37.3334 84.3652 37.9681 85 38.75 85H98.25C99.0319 85 99.6666 84.3653 99.6666 83.5834C99.6666 82.8015 99.0319 82.1666 98.25 82.1666Z" fill="#6F9CD6"/>
<path d="M109.583 31.1666C108.801 31.1666 108.167 31.8013 108.167 32.5832V33.9998H92.5834C91.8014 33.9998 91.1667 34.6345 91.1667 35.4165C91.1667 36.1984 91.8014 36.8331 92.5834 36.8331H108.167V83.5831C108.167 84.365 108.801 84.9997 109.583 84.9997C110.365 84.9997 111 84.365 111 83.5831V32.5831C111 31.8013 110.365 31.1666 109.583 31.1666Z" fill="#6F9CD6"/>
<path fill-rule="evenodd" clip-rule="evenodd" d="M72.75 53.8333C71.9681 53.8333 71.3334 53.1985 71.3334 52.4166V43.9166C71.3334 43.1346 71.9681 42.5 72.75 42.5H78.4166C79.1985 42.5 79.8332 43.1346 79.8332 43.9166V52.4166C79.8332 53.1985 79.1985 53.8333 78.4166 53.8333H72.75ZM77 45.3334H74.1666V51H77V45.3334Z" fill="#6F9CD6"/>
<path fill-rule="evenodd" clip-rule="evenodd" d="M33.0833 51C40.0859 51 40.1666 69.2325 40.1666 69.4166C40.1666 72.8379 37.7285 75.6981 34.4998 76.3569V83.5834C34.4998 84.3654 33.8652 85 33.0833 85C32.3013 85 31.6666 84.3654 31.6666 83.5834V76.3569C28.4381 75.6981 26 72.8379 26 69.4166C26 69.2325 26.0807 51 33.0833 51ZM28.8334 69.4166C28.8334 71.7598 30.7402 73.6666 33.0834 73.6666C35.4265 73.6666 37.3334 71.7598 37.3334 69.4166C37.3334 62.3588 35.4378 53.8333 33.0834 53.8333C30.7289 53.8333 28.8334 62.3588 28.8334 69.4166Z" fill="#6F9CD6"/>
<path d="M88.3334 72.25V29.75C88.3334 28.9681 87.6987 28.3334 86.9168 28.3334C86.1349 28.3334 85.5002 28.9681 85.5002 29.75V72.25C85.5002 73.0319 86.1349 73.6666 86.9168 73.6666C87.6987 73.6666 88.3334 73.0319 88.3334 72.25Z" fill="#6F9CD6"/>
<path fill-rule="evenodd" clip-rule="evenodd" d="M78.4166 36.8334H72.75C71.9681 36.8334 71.3334 36.1986 71.3334 35.4167V26.9167C71.3334 26.1348 71.9681 25.5001 72.75 25.5001H78.4166C79.1985 25.5001 79.8332 26.1348 79.8332 26.9167V35.4167C79.8332 36.1986 79.1985 36.8334 78.4166 36.8334ZM77 28.3334H74.1666V34H77V28.3334Z" fill="#6F9CD6"/>
<path d="M27.4166 49.5834C28.1985 49.5834 28.8332 48.9488 28.8332 48.1668V36.8334H44.4166C45.1985 36.8334 45.8332 36.1988 45.8332 35.4168C45.8332 34.6349 45.1985 34.0002 44.4166 34.0002H28.8334V32.5836C28.8334 31.8017 28.1987 31.167 27.4168 31.167C26.6348 31.167 26 31.8013 26 32.5834V48.1668C26 48.9488 26.6347 49.5834 27.4166 49.5834Z" fill="#6F9CD6"/>
</svg>
